<?xml version="1.0" encoding="UTF-8"?>
<svg version="1.1" xmlns="http://www.w3.org/2000/svg" width="1476" height="680" >
<path d="M0 0 C1.65 0 3.3 0 5 0 C5.31022095 1.17357056 5.31022095 1.17357056 5.62670898 2.37084961 C6.56011974 5.89400996 7.49873732 9.41576211 8.4375 12.9375 C8.76298828 14.16919922 9.08847656 15.40089844 9.42382812 16.66992188 C9.89272461 18.4246582 9.89272461 18.4246582 10.37109375 20.21484375 C10.65911865 21.29886475 10.94714355 22.38288574 11.24389648 23.49975586 C11.76039211 25.91777602 11.76039211 25.91777602 13 27 C14.79245323 26.96702845 16.5842675 26.89766337 18.375 26.8125 C29.3075875 26.76062533 36.92343146 30.90059654 45 38 C47.64398662 36.73424249 50.04867577 35.36324713 52.44140625 33.671875 C53.09850586 33.2080542 53.75560547 32.7442334 54.43261719 32.26635742 C55.13547852 31.76595947 55.83833984 31.26556152 56.5625 30.75 C57.29758789 30.23219971 58.03267578 29.71439941 58.79003906 29.1809082 C62.97657201 26.21522739 67.09723452 23.18150609 71.16796875 20.05859375 C72.01609131 19.41374023 72.86421387 18.76888672 73.73803711 18.10449219 C75.3906856 16.84328158 77.03379753 15.56945858 78.66625977 14.28222656 C79.42092529 13.70827148 80.17559082 13.13431641 80.953125 12.54296875 C81.61473633 12.02758545 82.27634766 11.51220215 82.95800781 10.98120117 C85.65008798 9.68762511 87.19358411 10.1770408 90 11 C88.67908291 14.05766342 87.46795581 15.69020511 84.71875 17.55859375 C84.04996826 18.02072266 83.38118652 18.48285156 82.69213867 18.95898438 C81.96873291 19.44689453 81.24532715 19.93480469 80.5 20.4375 C78.96419143 21.49775363 77.42905865 22.5589867 75.89453125 23.62109375 C75.0948291 24.1713623 74.29512695 24.72163086 73.47119141 25.28857422 C69.34391748 28.14692141 65.26336421 31.06900857 61.1875 34 C60.42953125 34.53939209 59.6715625 35.07878418 58.890625 35.63452148 C55.31077825 38.20814322 51.99308299 40.73196188 49 44 C49.28875 44.63164063 49.5775 45.26328125 49.875 45.9140625 C53.72557725 55.19288408 54.88779887 64.76646192 51.375 74.375 C47.33259138 83.05975067 41.519035 89.51629737 33 94 C32.01 94 31.02 94 30 94 C33.3 106.21 36.6 118.42 40 131 C50.22118187 134.14856235 50.22118187 134.14856235 55.05932617 130.40063477 C56.33763304 129.11356397 57.58098128 127.79111217 58.79296875 126.44140625 C59.46870438 125.74490463 60.14444 125.04840302 60.84065247 124.33079529 C62.98893799 122.10342167 65.08791531 119.83574362 67.1875 117.5625 C69.30744243 115.3323428 71.43657921 113.11125029 73.56648254 110.89060974 C74.8847222 109.50919418 76.19542277 108.12052728 77.49687195 106.72328186 C81.17443268 102.79001548 84.99505375 99.18515702 89.08100891 95.67930603 C91.98921669 93.13433806 94.69633743 90.40906136 97.40625 87.65625 C97.97525024 87.08346313 98.54425049 86.51067627 99.13049316 85.92053223 C100.92282982 84.11614749 102.71184316 82.3085264 104.5 80.5 C117.81957631 67.0286954 117.81957631 67.0286954 124.08203125 61.71289062 C126.4304623 59.61556473 128.60628578 57.38653248 130.796875 55.125 C131.61027344 54.28582031 132.42367188 53.44664063 133.26171875 52.58203125 C134.94372651 50.83665114 136.61803087 49.0838195 138.28515625 47.32421875 C139.49751953 46.08091797 139.49751953 46.08091797 140.734375 44.8125 C141.45850586 44.05582031 142.18263672 43.29914063 142.92871094 42.51953125 C145 41 145 41 147.06347656 41.1328125 C149.94196787 42.4218192 152.42830984 44.18812738 155 46 C153.38275849 50.08207345 150.45615199 52.80398063 147.375 55.8125 C146.63056641 56.5559668 146.63056641 56.5559668 145.87109375 57.31445312 C143.13915418 60.01511095 140.33844486 62.58350464 137.4140625 65.07421875 C131.29193769 70.38118125 125.69151454 76.24092084 120 82 C107.36670821 94.78326304 107.36670821 94.78326304 101.13671875 100.0859375 C95.86304929 104.81006553 90.97514105 109.96579848 86 115 C70.13204776 131.0563225 70.13204776 131.0563225 63.09692383 136.46240234 C61.2630719 137.88534409 60.11587508 138.95571686 59 141 C58.95646728 143.82962674 59.3245224 146.45628905 59.73828125 149.25390625 C60.1358631 153.42554868 59.2795813 156.50057586 57 160 C54.82433533 162.25285012 52.50524313 164.13191932 50 166 C51.6566613 175.31629981 54.19309825 184.38963623 56.69189453 193.50561523 C57.23778883 195.50161539 57.77920412 197.49879182 58.3203125 199.49609375 C58.64273926 200.67357178 58.96516602 201.8510498 59.29736328 203.06420898 C60 206 60 206 60 209 C60.99 208.67 61.98 208.34 63 208 C73.09795217 207.42862512 82.29124223 207.85728072 92 211 C92.26353271 210.12746582 92.52706543 209.25493164 92.79858398 208.35595703 C93.98466887 205.04282498 95.41396384 202.31636116 97.22265625 199.3046875 C97.84333984 198.25925781 98.46402344 197.21382812 99.10351562 196.13671875 C99.74998047 195.06035156 100.39644531 193.98398437 101.0625 192.875 C102.34965475 190.72931685 103.63240769 188.58098528 104.91015625 186.4296875 C105.76299194 185.01018799 105.76299194 185.01018799 106.63305664 183.56201172 C107.84023764 181.29943671 108.62949917 179.5240586 109 177 C108.29136603 175.11961098 108.29136603 175.11961098 107.125 173.3125 C103.84542697 167.13044769 103.33587636 161.65816432 105.0625 154.875 C107.25754233 148.50739972 110.78600389 144.02399982 116.625 140.625 C120.21032718 138.97855216 122.8927696 139.02719327 126.796875 139.1796875 C130.79551159 138.87959192 132.42406651 138.60585211 135.21826172 135.66650391 C137.24070984 132.36672013 138.96878538 128.99104455 140.625 125.5 C141.2628074 124.24483705 141.90551732 122.99215387 142.55297852 121.74194336 C143.82633881 119.27537527 145.08002856 116.80048913 146.31787109 114.31591797 C148.36083655 110.28869637 150.59223744 106.41865287 152.9375 102.5625 C157.60441111 94.74745298 162.11468515 86.84349107 166.625 78.9375 C166.99132538 78.29547638 167.35765076 77.65345276 167.7350769 76.99197388 C169.82484367 73.32881311 171.91306547 69.66477527 174 66 C177.84987971 66 178.54102273 67.05160665 181.25 69.6875 C181.97703125 70.37199219 182.7040625 71.05648437 183.453125 71.76171875 C185 74 185 74 184.78857422 76.28369141 C183.87969674 79.41439445 182.56674071 81.87871731 180.9296875 84.69921875 C179.96663696 86.37081055 179.96663696 86.37081055 178.98413086 88.07617188 C178.28121754 89.28002401 177.57817066 90.48379816 176.875 91.6875 C176.1537245 92.93386669 175.43311183 94.18061718 174.71313477 95.42773438 C173.22372323 98.00524086 171.73042128 100.58043152 170.23388672 103.15380859 C168.09532044 106.83258762 165.96944624 110.51855661 163.84765625 114.20703125 C161.36858773 118.51458736 158.88823037 122.82137435 156.40234375 127.125 C155.85175293 128.08792969 155.30116211 129.05085937 154.73388672 130.04296875 C153.50918557 132.13161706 152.24061596 134.19483629 150.94189453 136.23828125 C150.2817334 137.29402344 149.62157227 138.34976563 148.94140625 139.4375 C148.33111572 140.38496094 147.7208252 141.33242187 147.09204102 142.30859375 C145.69215597 144.97091297 145.69215597 144.97091297 146.76293945 147.7253418 C147.17116943 148.475979 147.57939941 149.22661621 148 150 C151.22167521 157.40394165 152.14262554 163.29905342 149.5 171.0625 C146.85975209 177.16043912 142.5537481 181.22312595 136.640625 184.1796875 C133.53136556 185.14558171 130.93680092 185.19641321 127.6875 185.125 C126.61886719 185.10695313 125.55023438 185.08890625 124.44921875 185.0703125 C123.64097656 185.04710937 122.83273437 185.02390625 122 185 C121.76796875 185.64710938 121.5359375 186.29421875 121.296875 186.9609375 C119.56558671 191.01799259 117.41678774 194.78689611 115.25 198.625 C114.35123571 200.2289836 113.4527977 201.83315007 112.5546875 203.4375 C111.90064941 204.60345703 111.90064941 204.60345703 111.23339844 205.79296875 C108.78464462 210.17474518 106.39135531 214.58668574 104 219 C104.845625 219.61875 105.69125 220.2375 106.5625 220.875 C112.85896101 226.12702435 117.18313064 233.3778829 120 241 C130.33311737 239.98753772 140.31804868 237.18960067 150.35428238 234.62053108 C153.63426047 233.78109123 156.91655691 232.96069903 160.21191406 232.18359375 C164.03533223 231.28152156 167.83726247 230.30367622 171.640625 229.3203125 C172.81981506 229.052117 173.99900513 228.78392151 175.21392822 228.50759888 C181.40935205 226.94698783 181.40935205 226.94698783 185.52380371 222.40618896 C186.5880486 219.50301125 186.5880486 219.50301125 187.20550537 216.60836792 C188.47698019 212.43404878 191.43224326 210.30234548 195 208 C198.21451269 206.39274365 201.43612536 206.94251815 205 207 C205.16829819 206.34742218 205.33659637 205.69484436 205.50999451 205.02249146 C207.41283873 197.82739279 209.6874625 190.82219577 212.16015625 183.8046875 C212.55069687 182.69062531 212.94123749 181.57656311 213.34361267 180.42874146 C214.1626706 178.09696157 214.98378738 175.76590393 215.80688477 173.43554688 C217.07022735 169.85308755 218.3214639 166.26654179 219.57226562 162.6796875 C220.37166428 160.40859654 221.17176883 158.13775389 221.97265625 155.8671875 C222.34665054 154.79129364 222.72064484 153.71539978 223.10597229 152.60690308 C223.45651169 151.62142487 223.80705109 150.63594666 224.16821289 149.62060547 C224.62763023 148.31468948 224.62763023 148.31468948 225.09632874 146.98239136 C226 145 226 145 228 144 C231.98699644 152.93087203 230.55496105 159.12454631 227.16653442 168.0708313 C226.78415619 169.0606601 226.40177795 170.05048889 226.0078125 171.0703125 C225.21216711 173.203915 224.41793768 175.33804597 223.625 177.47265625 C222.37467466 180.81392392 221.11514203 184.1505526 219.83105469 187.47900391 C218.59041339 190.70780372 217.39006694 193.94930311 216.1953125 197.1953125 C215.80078888 198.18918976 215.40626526 199.18306702 214.99978638 200.20706177 C214.03862385 202.86902281 213.24872916 205.18001383 213 208 C214.28810026 210.70407944 215.73153956 211.94160499 218 214 C218 214.66 218 215.32 218 216 C218.61520508 215.81824219 219.23041016 215.63648438 219.86425781 215.44921875 C222.65790293 214.62724848 225.45389083 213.81354684 228.25 213 C229.21808594 212.71382812 230.18617188 212.42765625 231.18359375 212.1328125 C232.11816406 211.86210937 233.05273438 211.59140625 234.015625 211.3125 C235.30388184 210.93544922 235.30388184 210.93544922 236.61816406 210.55078125 C239 210 239 210 243 210 C243 212.64 243 215.28 243 218 C239.91882573 218.84145956 236.83474379 219.67173062 233.75 220.5 C232.87730469 220.73847656 232.00460937 220.97695313 231.10546875 221.22265625 C230.26113281 221.44824219 229.41679687 221.67382812 228.546875 221.90625 C227.77182617 222.11572266 226.99677734 222.32519531 226.19824219 222.54101562 C224 223 224 223 220 223 C220.0825 224.010625 220.165 225.02125 220.25 226.0625 C219.95600033 230.69299478 218.90295852 233.42234776 216 237 C210.54919922 241.22715162 206.82314153 242.12873852 200 242 C199.86730713 242.72718231 199.73461426 243.45436462 199.59790039 244.20358276 C199.03931845 246.81610517 198.3153787 249.22364943 197.43359375 251.74267578 C196.95805054 253.10901657 196.95805054 253.10901657 196.47290039 254.50296021 C195.9603772 255.95942459 195.9603772 255.95942459 195.4375 257.4453125 C195.0861499 258.45214081 194.7347998 259.45896912 194.37280273 260.49630737 C193.25163547 263.70696518 192.125913 266.91600373 191 270.125 C190.24187982 272.29286117 189.48406383 274.46082876 188.7265625 276.62890625 C187.06089167 281.39579315 185.39224283 286.16162648 183.72094727 290.92654419 C183.13446125 292.6132873 182.56471835 294.30584495 182 296 C183.98 297.485 183.98 297.485 186 299 C186.42595459 298.64397705 186.85190918 298.2879541 187.29077148 297.92114258 C195.91736173 290.72598868 204.62364974 283.68654937 213.59228516 276.921875 C219.70091289 272.2897939 225.6112044 267.43714447 231.46875 262.4921875 C232.46841797 261.65494141 232.46841797 261.65494141 233.48828125 260.80078125 C234.07134033 260.30747314 234.65439941 259.81416504 235.25512695 259.3059082 C237.08532961 257.93613711 238.92937988 256.95936177 241 256 C241.4453125 258.61328125 241.4453125 258.61328125 241 262 C238.95047478 264.47120914 236.44199125 266.27874156 233.875 268.1875 C232.78662842 269.03223877 232.78662842 269.03223877 231.67626953 269.89404297 C230.18066585 271.0530135 228.67913827 272.20437859 227.171875 273.34814453 C224.61460595 275.29311782 222.09490921 277.28218428 219.57714844 279.27783203 C217.87430894 280.62554694 216.16491207 281.96445461 214.453125 283.30078125 C212.06293298 285.16717976 209.67793022 287.03992703 207.296875 288.91796875 C201.2504884 293.68568019 195.19028443 298.41918952 189 303 C189.495 304.11375 189.99 305.2275 190.5 306.375 C192.79295846 312.45350308 192.77081981 318.77356907 191 325 C191.63292969 325.22429687 192.26585937 325.44859375 192.91796875 325.6796875 C197.2235634 327.52416277 201.23494801 329.82715302 205.3125 332.125 C206.14845703 332.59292969 206.98441406 333.06085938 207.84570312 333.54296875 C209.89866233 334.6926259 211.95002202 335.84503802 214 337 C213.48967606 340.77639718 212.79233071 342.44722581 210 345 C209.35450195 344.59571777 208.70900391 344.19143555 208.04394531 343.77490234 C205.12267463 341.9581682 202.18682821 340.16646521 199.25 338.375 C198.23421875 337.73820312 197.2184375 337.10140625 196.171875 336.4453125 C194.70234375 335.55585937 194.70234375 335.55585937 193.203125 334.6484375 C192.30239258 334.09333496 191.40166016 333.53823242 190.47363281 332.96630859 C188.07134129 331.72475088 188.07134129 331.72475088 185.86621094 332.70556641 C185.25036133 333.13272949 184.63451172 333.55989258 184 334 C179.21263897 337.2241411 176.1305837 339.14682005 170.3125 339.0625 C169.55090576 339.0514624 168.78931152 339.0404248 168.00463867 339.02905273 C167.01234253 339.01467163 167.01234253 339.01467163 166 339 C165.84103745 339.55433212 165.68207489 340.10866425 165.51829529 340.67979431 C163.27102161 348.35367283 160.67093067 355.89391578 158.03515625 363.44140625 C157.55570266 364.81800147 157.076329 366.19462453 156.59703064 367.5712738 C155.59753465 370.44021851 154.596318 373.30855579 153.59399414 376.17651367 C152.31798126 379.82837155 151.04748369 383.48212147 149.77842045 387.13639927 C148.79186495 389.97454691 147.80176741 392.81144958 146.81069756 395.64802361 C146.34107578 396.99383203 145.87265723 398.34006101 145.40553474 399.68673897 C137.8609522 421.42184136 137.8609522 421.42184136 132.75 424.0625 C132.04359375 424.44535156 131.3371875 424.82820313 130.609375 425.22265625 C130.07828125 425.47917969 129.5471875 425.73570312 129 426 C127.91173436 422.73652567 128.08164503 420.92666767 129.24072266 417.7109375 C129.53962906 416.86523193 129.83853546 416.01952637 130.14649963 415.14819336 C130.65019325 413.77546265 130.65019325 413.77546265 131.1640625 412.375 C131.50803574 411.41150635 131.85200897 410.4480127 132.20640564 409.45532227 C133.33577479 406.29979462 134.48023425 403.14997109 135.625 400 C136.40319522 397.83497049 137.18045215 395.6696035 137.95678711 393.50390625 C139.91781897 388.04112442 141.89120194 382.58289976 143.86846924 377.12597656 C145.5946627 372.35717973 147.31084626 367.58479336 149.02734375 362.8125 C152.00586602 354.53716574 154.99760569 346.26670346 158 338 C154.9277046 334.90743766 154.9277046 334.90743766 150.89990234 334.09033203 C148.87134684 335.06159878 147.32582928 336.11011197 145.6015625 337.5546875 C144.9636377 338.08215576 144.32571289 338.60962402 143.66845703 339.15307617 C142.99411621 339.72131104 142.31977539 340.2895459 141.625 340.875 C140.19878848 342.05704227 138.77168693 343.23801139 137.34375 344.41796875 C136.62316406 345.01528809 135.90257812 345.61260742 135.16015625 346.22802734 C131.27669761 349.41362214 127.30931863 352.49137748 123.34228516 355.57177734 C121.12022897 357.30370314 118.99448208 359.00551792 117 361 C117.33 361.99 117.66 362.98 118 364 C118.69766205 371.182488 118.39536204 376.17911514 114 382 C113.071875 382.66 112.14375 383.32 111.1875 384 C110.465625 384.66 109.74375 385.32 109 386 C109.3807825 391.13615463 110.71051889 396.00558699 112.1015625 400.9453125 C112.51341039 402.44911212 112.92485692 403.9530217 113.3359375 405.45703125 C113.98106189 407.79966997 114.6295476 410.14122941 115.28515625 412.48095703 C115.92123507 414.75817634 116.54355978 417.03880753 117.1640625 419.3203125 C117.46239487 420.36422653 117.46239487 420.36422653 117.76675415 421.42922974 C118.80864741 425.30016043 119.17576081 428.13651908 118 432 C117.01 432 116.02 432 115 432 C106.27448586 400.473206 106.27448586 400.473206 103 388 C102.31292969 387.87882812 101.62585938 387.75765625 100.91796875 387.6328125 C100.01691406 387.46523438 99.11585938 387.29765625 98.1875 387.125 C96.84751953 386.88136719 96.84751953 386.88136719 95.48046875 386.6328125 C93 386 93 386 90 384 C86.8505639 384.3433625 84.99462208 385.54980325 82.6015625 387.5546875 C81.9636377 388.08215576 81.32571289 388.60962402 80.66845703 389.15307617 C79.99411621 389.72131104 79.31977539 390.2895459 78.625 390.875 C77.19878848 392.05704227 75.77168693 393.23801139 74.34375 394.41796875 C73.62316406 395.01528809 72.90257812 395.61260742 72.16015625 396.22802734 C68.27669761 399.41362214 64.30931863 402.49137748 60.34228516 405.57177734 C58.12022897 407.30370314 55.99448208 409.00551792 54 411 C54.52001587 411.79881592 54.52001587 411.79881592 55.05053711 412.61376953 C57.87282659 416.95008271 60.69223102 421.28823413 63.5078125 425.62890625 C65.61432996 428.87487382 67.73129595 432.11313821 69.8671875 435.33984375 C70.28492432 435.97583496 70.70266113 436.61182617 71.13305664 437.26708984 C72.24734862 438.96332318 73.36763178 440.65561639 74.48828125 442.34765625 C76 445 76 445 76 448 C73.01583016 447.68104496 71.44634781 447.48049245 69.3659668 445.2409668 C68.89843994 444.48468994 68.43091309 443.72841309 67.94921875 442.94921875 C67.41917236 442.11036133 66.88912598 441.27150391 66.34301758 440.40722656 C65.79669678 439.5097168 65.25037598 438.61220703 64.6875 437.6875 C63.53936 435.86309399 62.39092304 434.03887483 61.2421875 432.21484375 C60.68885742 431.32394043 60.13552734 430.43303711 59.56542969 429.51513672 C57.52188841 426.23183007 55.432574 422.98447188 53.3125 419.75 C52.71050781 418.81671875 52.10851562 417.8834375 51.48828125 416.921875 C50.99714844 416.28765625 50.50601562 415.6534375 50 415 C47.30516903 415 46.58807026 415.98339503 44.54296875 417.7109375 C43.84937256 418.29109619 43.15577637 418.87125488 42.44116211 419.46899414 C41.69745361 420.09797607 40.95374512 420.72695801 40.1875 421.375 C35.00647416 425.70330741 29.81262657 429.9771337 24.4375 434.0625 C18.64989049 438.46166783 13.00321782 443.01786505 7.37866211 447.62329102 C5.58970103 449.08710892 3.79595081 450.54477325 2 452 C1.24332031 452.61617187 0.48664063 453.23234375 -0.29296875 453.8671875 C-2.58722954 455.38969466 -4.3091013 455.22424156 -7 455 C-7 452 -7 452 -5.75341797 450.640625 C-5.17221191 450.18171875 -4.59100586 449.7228125 -3.9921875 449.25 C-3.34241943 448.72978271 -2.69265137 448.20956543 -2.02319336 447.67358398 C-1.31428955 447.12130127 -0.60538574 446.56901855 0.125 446 C0.85130615 445.42258057 1.5776123 444.84516113 2.32592773 444.25024414 C4.54346086 442.49086104 6.77056872 440.74427007 9 439 C10.21779332 438.04080294 11.43526627 437.08119893 12.65234375 436.12109375 C14.92462129 434.33107841 17.20136861 432.54694217 19.48046875 430.765625 C23.3038353 427.77088862 27.08898106 424.72921455 30.875 421.6875 C35.84846304 417.69435246 40.85902372 413.7770438 46 410 C44.32491359 404.97474077 41.41870747 400.86674839 38.5 396.5 C32.51546392 387.54639175 32.51546392 387.54639175 31 383 C29.783125 383.495 28.56625 383.99 27.3125 384.5 C21.3012713 386.52926829 15.28139585 386.46862638 9 386 C8.34 385.67 7.68 385.34 7 385 C6.72704102 385.71953857 6.45408203 386.43907715 6.17285156 387.18041992 C5.01939229 389.9533802 3.70261313 392.4947937 2.234375 395.11328125 C1.68080322 396.10239502 1.12723145 397.09150879 0.55688477 398.1105957 C-0.03938721 399.16722412 -0.63565918 400.22385254 -1.25 401.3125 C-1.8675415 402.41102295 -2.48508301 403.5095459 -3.12133789 404.64135742 C-9.08313049 415.21235573 -15.18840092 425.69845184 -21.33544922 436.16259766 C-24.23350502 441.10263939 -27.11573395 446.05189756 -30 451 C-36.93 449.515 -36.93 449.515 -44 448 C-43.07134934 444.28539734 -41.95881328 441.85541364 -40.11328125 438.546875 C-39.51136963 437.4643042 -38.90945801 436.3817334 -38.28930664 435.26635742 C-37.63063409 434.09409047 -36.97169196 432.92197495 -36.3125 431.75 C-35.63585165 430.53954468 -34.95933972 429.32901309 -34.28295898 428.1184082 C-29.78922609 420.09492221 -25.2036664 412.12668905 -20.5625 404.1875 C-19.98604736 403.19943359 -19.40959473 402.21136719 -18.81567383 401.19335938 C-16.336149 396.95279412 -13.84178058 392.72498082 -11.27734375 388.53515625 C-10.88538818 387.88329346 -10.49343262 387.23143066 -10.08959961 386.55981445 C-9.09196448 384.90275212 -8.07803663 383.25552711 -7.0625 381.609375 C-5.72244019 379.11329461 -5.72244019 379.11329461 -6.65234375 376.93359375 C-7.09707031 376.29550781 -7.54179687 375.65742188 -8 375 C-13.02985973 365.92744927 -15.21429496 358.80086007 -12.8671875 348.49609375 C-10.9050711 342.84838032 -7.30139272 338.09595307 -3 334 C-4.65181771 329.24870411 -7.20157166 325.22448444 -9.875 321 C-10.52662109 319.95199219 -10.52662109 319.95199219 -11.19140625 318.8828125 C-13.59290854 315.06060164 -16.09050161 311.46433297 -19 308 C-19.80050781 308.34224609 -19.80050781 308.34224609 -20.6171875 308.69140625 C-27.9154684 311.50717898 -33.97663072 311.51825256 -41.3125 308.75 C-45.76384612 305.85144904 -48.87791013 302.23776463 -52 298 C-60.52048344 299.50509277 -68.80406338 301.78832672 -77.125 304.125 C-78.47647008 304.50163388 -79.82803202 304.87793828 -81.1796875 305.25390625 C-84.45403969 306.16604722 -87.72743125 307.081485 -91 308 C-90.98187256 308.57427734 -90.96374512 309.14855469 -90.94506836 309.74023438 C-90.76049295 319.90770255 -93.22963224 329.2104461 -99.94140625 337.0625 C-108.23309966 344.86644674 -116.91505032 347.32908049 -128 347 C-128.04970947 347.7930957 -128.09941895 348.58619141 -128.15063477 349.40332031 C-128.77281395 358.73800437 -129.65659711 368.02817082 -130.67456055 377.32714844 C-130.94158204 379.7876139 -131.19629863 382.24918756 -131.45117188 384.7109375 C-131.62164324 386.28133188 -131.79283915 387.85164782 -131.96484375 389.421875 C-132.07589699 390.52169708 -132.07589699 390.52169708 -132.18919373 391.64373779 C-132.77154455 396.77154455 -132.77154455 396.77154455 -135 399 C-136.50740051 397.80241394 -136.50740051 397.80241394 -138 396 C-138.17094421 393.77900696 -138.17094421 393.77900696 -137.8815918 391.16137695 C-137.78126144 390.1805867 -137.68093109 389.19979645 -137.57756042 388.18928528 C-137.45270767 387.13295395 -137.32785492 386.07662262 -137.19921875 384.98828125 C-137.08399368 383.90491989 -136.96876862 382.82155853 -136.85005188 381.70536804 C-136.47782915 378.23921662 -136.08294616 374.77607123 -135.6875 371.3125 C-135.43144845 368.96565734 -135.17687228 366.6186532 -134.92382812 364.27148438 C-134.29967158 358.51233858 -133.65688365 352.75549967 -133 347 C-134.74906531 346.35163958 -136.49929219 345.70641216 -138.25 345.0625 C-139.22453125 344.70285156 -140.1990625 344.34320313 -141.203125 343.97265625 C-144.54970055 342.77585142 -144.54970055 342.77585142 -148 342 C-150.18649205 343.52492619 -150.18649205 343.52492619 -152.22265625 345.8046875 C-153.00833984 346.61550781 -153.79402344 347.42632812 -154.60351562 348.26171875 C-155.41498047 349.12410156 -156.22644531 349.98648437 -157.0625 350.875 C-158.67394107 352.56414692 -160.28963716 354.24924782 -161.91015625 355.9296875 C-162.62308838 356.68491699 -163.33602051 357.44014648 -164.07055664 358.21826172 C-166 360 -166 360 -169 361 C-169.86949317 359.92892883 -170.72014205 358.84254056 -171.5625 357.75 C-172.27599609 356.84507812 -172.27599609 356.84507812 -173.00390625 355.921875 C-174 354 -174 354 -173.80078125 352.13671875 C-172.76593769 349.37545326 -171.28927084 347.94950926 -169.18359375 345.890625 C-168.41982422 345.13652344 -167.65605469 344.38242187 -166.86914062 343.60546875 C-166.06669922 342.82816406 -165.26425781 342.05085938 -164.4375 341.25 C-163.63119141 340.45722656 -162.82488281 339.66445313 -161.99414062 338.84765625 C-160.00266222 336.89152954 -158.00452279 334.94274281 -156 333 C-156.96776098 329.20452079 -156.96776098 329.20452079 -159 326 C-161.01599849 326.41147864 -163.01505161 326.90631601 -165.00390625 327.43359375 C-166.21884766 327.75263672 -167.43378906 328.07167969 -168.68554688 328.40039062 C-169.97789821 328.74596803 -171.27021548 329.09167283 -172.5625 329.4375 C-173.85858224 329.77983389 -175.15480456 330.12163786 -176.45117188 330.46289062 C-179.63553558 331.30337324 -182.81835068 332.14931018 -186 333 C-187.5625 330.6875 -187.5625 330.6875 -189 328 C-188.67 327.01 -188.34 326.02 -188 325 C-185.53149414 324.0168457 -185.53149414 324.0168457 -182.28515625 323.17578125 C-181.12435547 322.86962891 -179.96355469 322.56347656 -178.76757812 322.24804688 C-177.54490234 321.93931641 -176.32222656 321.63058594 -175.0625 321.3125 C-173.84369141 320.99216797 -172.62488281 320.67183594 -171.36914062 320.34179688 C-162.36645456 318 -162.36645456 318 -160 318 C-160.04640625 317.17757813 -160.0928125 316.35515625 -160.140625 315.5078125 C-160.4811064 304.97720912 -158.41147568 297.09169086 -151.7578125 288.81640625 C-145.94553594 282.81038714 -138.0729512 278.45547134 -129.65625 277.82421875 C-127.76994939 277.81425589 -125.88352706 277.89726216 -124 278 C-124.02839966 276.05686668 -124.02839966 276.05686668 -124.05737305 274.07447815 C-124.05473531 269.26539307 -123.63995699 264.58082292 -123.08203125 259.80834961 C-122.98449554 258.93896759 -122.88695984 258.06958557 -122.78646851 257.17385864 C-122.46654973 254.33279473 -122.13958768 251.49259044 -121.8125 248.65234375 C-121.58786011 246.66985441 -121.36366442 244.68731468 -121.13989258 242.70472717 C-120.55248151 237.51097412 -119.95907338 232.31792356 -119.36437988 227.125 C-118.75749953 221.81616921 -118.15634014 216.50669095 -117.5546875 211.19726562 C-116.37536471 200.79753837 -115.1897003 190.39854484 -114 180 C-114.92878212 179.80587021 -114.92878212 179.80587021 -115.87632751 179.6078186 C-117.09371361 179.34682877 -117.09371361 179.34682877 -118.33569336 179.08056641 C-119.14050644 178.90989655 -119.94531952 178.73922668 -120.77452087 178.56338501 C-123.38340559 177.90294002 -125.35217176 176.90213587 -127.5625 175.375 C-128.22378906 174.92898437 -128.88507813 174.48296875 -129.56640625 174.0234375 C-130.03949219 173.68570313 -130.51257813 173.34796875 -131 173 C-131.74121094 173.58265625 -132.48242188 174.1653125 -133.24609375 174.765625 C-140.11959109 180.13019745 -147.12576636 185.25372212 -154.27050781 190.25048828 C-159.80277631 194.12947761 -165.25740709 198.10442289 -170.6875 202.125 C-176.72248559 206.59326886 -182.7793493 211.02229774 -188.90795898 215.36132812 C-192.00661438 217.55969542 -195.07704748 219.7903007 -198.125 222.05859375 C-198.81303711 222.56946533 -199.50107422 223.08033691 -200.20996094 223.60668945 C-201.54438678 224.59984339 -202.87589931 225.59692683 -204.20410156 226.59838867 C-208.77904375 230 -208.77904375 230 -211 230 C-211.3515625 227.79296875 -211.3515625 227.79296875 -211 225 C-209.14332844 223.16491764 -207.48750823 221.79206722 -205.375 220.3125 C-204.7874292 219.88171143 -204.1998584 219.45092285 -203.59448242 219.00708008 C-201.7410766 217.65470106 -199.87223723 216.32614756 -198 215 C-196.88347288 214.19620312 -195.76756734 213.39154198 -194.65234375 212.5859375 C-192.3701289 210.94330715 -190.0802802 209.3120399 -187.78515625 207.6875 C-183.58767496 204.713868 -179.41824934 201.70191335 -175.25 198.6875 C-174.11800171 197.86934814 -174.11800171 197.86934814 -172.96313477 197.03466797 C-170.64184904 195.35677808 -168.32087629 193.67845618 -166 192 C-155.35553725 184.30193167 -144.70000206 176.62074102 -134 169 C-134.15597656 168.39414063 -134.31195313 167.78828125 -134.47265625 167.1640625 C-136.2491432 159.51693326 -136.93895005 152.0707382 -133 145 C-133.71446289 144.72994141 -134.42892578 144.45988281 -135.16503906 144.18164062 C-138.02863414 142.988065 -140.65468893 141.61173477 -143.359375 140.09375 C-144.89827393 139.23197144 -144.89827393 139.23197144 -146.46826172 138.3527832 C-147.55123535 137.74136475 -148.63420898 137.12994629 -149.75 136.5 C-150.86004395 135.87504639 -151.97008789 135.25009277 -153.11376953 134.60620117 C-159.72096943 130.87669992 -166.31787768 127.12946306 -172.875 123.3125 C-173.56303711 122.91546875 -174.25107422 122.5184375 -174.95996094 122.109375 C-177.97426519 120.33752591 -180.7090088 118.67282307 -183 116 C-182.01 114.02 -181.02 112.04 -180 110 C-176.36367377 111.37448867 -173.02935879 113.00434858 -169.640625 114.90625 C-168.61493408 115.48076904 -167.58924316 116.05528809 -166.5324707 116.6472168 C-165.44925537 117.25863525 -164.36604004 117.87005371 -163.25 118.5 C-162.13778076 119.12495361 -161.02556152 119.74990723 -159.87963867 120.39379883 C-152.63754533 124.47547796 -145.43561398 128.61911088 -138.30371094 132.890625 C-134.60803307 135.09688511 -130.87456451 137.12521072 -127 139 C-132.70862083 129.52757906 -138.51144558 120.13314921 -144.5625 110.875 C-145.10229492 110.04516602 -145.64208984 109.21533203 -146.19824219 108.36035156 C-148.81816464 104.33346293 -151.45349881 100.3183856 -154.1171875 96.3203125 C-155.05796801 94.88065008 -155.99810766 93.4405686 -156.9375 92 C-157.38101807 91.34757324 -157.82453613 90.69514648 -158.28149414 90.02294922 C-159.46484375 88.1875 -159.46484375 88.1875 -161 85 C-160.25390625 82.5625 -160.25390625 82.5625 -159 81 C-154.97367981 84.72754731 -152.18518794 88.55712457 -149.375 93.25 C-148.49870528 94.68309318 -147.62105456 96.11535791 -146.7421875 97.546875 C-146.29198242 98.28228516 -145.84177734 99.01769531 -145.37792969 99.77539062 C-143.14114086 103.38659187 -140.82029517 106.94210449 -138.5 110.5 C-133.22910081 118.60235065 -128.09596512 126.78676337 -123 135 C-122.16855469 134.84402344 -121.33710937 134.68804687 -120.48046875 134.52734375 C-119.39378906 134.33269531 -118.30710937 134.13804687 -117.1875 133.9375 C-116.10855469 133.74027344 -115.02960938 133.54304687 -113.91796875 133.33984375 C-111 133 -111 133 -108 134 C-108.03123962 132.07674644 -108.03123962 132.07674644 -108.06311035 130.11463928 C-108.06007122 125.07551149 -107.58450364 120.16517405 -106.99023438 115.16577148 C-106.8829451 114.22811447 -106.77565582 113.29045746 -106.66511536 112.3243866 C-106.31282167 109.25604352 -105.95334564 106.18858887 -105.59375 103.12109375 C-105.3466817 100.98166457 -105.10006577 98.8421831 -104.85388184 96.70265198 C-104.20737027 91.09459376 -103.55474613 85.48726349 -102.90081787 79.88006592 C-102.23354872 74.14898907 -101.57210251 68.41724052 -100.91015625 62.68554688 C-99.61244759 51.45636874 -98.30827608 40.22795151 -97 29 C-95.35 28.34 -93.7 27.68 -92 27 C-94.45030527 52.34721272 -97.3030648 77.64412045 -100.25 102.9375 C-100.34223846 103.72920467 -100.43447693 104.52090935 -100.5295105 105.33660507 C-101.68196985 115.22491632 -102.83891896 125.11269728 -104 135 C-103.23300781 135.29648438 -102.46601563 135.59296875 -101.67578125 135.8984375 C-98.92542825 137.03069961 -96.51460611 138.41939045 -94 140 C-93.51869629 139.64397705 -93.03739258 139.2879541 -92.54150391 138.92114258 C-81.48744075 130.7488729 -70.39075526 122.6401716 -59.23388672 114.60888672 C-55.48640228 111.9098788 -51.74339809 109.20467113 -48 106.5 C-43.38458989 103.16549641 -38.76819412 99.83238636 -34.1484375 96.50390625 C-33.34921875 95.92769531 -32.55 95.35148437 -31.7265625 94.7578125 C-30.21398684 93.66735098 -28.70099941 92.57746029 -27.1875 91.48828125 C-26.49398437 90.988125 -25.80046875 90.48796875 -25.0859375 89.97265625 C-24.41401367 89.48812988 -23.74208984 89.00360352 -23.04980469 88.50439453 C-20.21069922 86.42071565 -17.42752392 84.26542635 -14.65087891 82.09936523 C-13 81 -13 81 -11 81 C-11.27714844 80.40832031 -11.55429688 79.81664062 -11.83984375 79.20703125 C-12.20207031 78.41683594 -12.56429687 77.62664062 -12.9375 76.8125 C-13.29714844 76.03519531 -13.65679687 75.25789063 -14.02734375 74.45703125 C-17.57359264 65.49883625 -16.72637048 55.82506279 -13.45703125 46.9296875 C-9.59888784 39.1720265 -2.91996963 32.60861926 5 29 C5.66 29 6.32 29 7 29 C6.78794922 28.19256348 6.57589844 27.38512695 6.35742188 26.55322266 C5.57275941 23.56072696 4.79027725 20.56767222 4.00927734 17.57421875 C3.50396693 15.64018311 2.99613392 13.70680713 2.48828125 11.7734375 C2.01455078 9.95585938 2.01455078 9.95585938 1.53125 8.1015625 C1.23798828 6.98088379 0.94472656 5.86020508 0.64257812 4.70556641 C0 2 0 2 0 0 Z M-9 84 C-9.45101074 84.32572998 -9.90202148 84.65145996 -10.36669922 84.98706055 C-14.20019531 87.75569661 -18.03369141 90.52433268 -21.8671875 93.29296875 C-22.72280273 93.91091309 -23.57841797 94.52885742 -24.45996094 95.16552734 C-26.08300781 96.33772786 -27.70605469 97.50992839 -29.32910156 98.68212891 C-30.06870117 99.21628418 -30.80830078 99.75043945 -31.5703125 100.30078125 C-32.30258057 100.82961914 -33.03484863 101.35845703 -33.78930664 101.90332031 C-35.27555767 102.97676943 -36.76172162 104.05033911 -38.24780273 105.12402344 C-41.98481057 107.82375986 -45.72325604 110.52145746 -49.46484375 113.21484375 C-58.15616509 119.47525185 -66.80189606 125.79283925 -75.41503906 132.16040039 C-80.88357814 136.19629257 -86.38915753 140.16327996 -92 144 C-91.67 145.11375 -91.34 146.2275 -91 147.375 C-90.13927131 150.75396204 -89.89127169 153.8046038 -89.9375 157.2890625 C-89.94652344 158.1754541 -89.95554687 159.0618457 -89.96484375 159.97509766 C-89.97644531 160.64331543 -89.98804688 161.3115332 -90 162 C-88.88141602 162.64231567 -88.88141602 162.64231567 -87.74023438 163.29760742 C-84.93648126 164.9085472 -82.13351651 166.52084824 -79.33105469 168.1340332 C-78.12498185 168.82792711 -76.91860895 169.52129975 -75.71191406 170.21411133 C-73.96337267 171.21814525 -72.21599176 172.22417526 -70.46875 173.23046875 C-69.35113281 173.87290527 -68.23351562 174.5153418 -67.08203125 175.17724609 C-64.46055034 176.72762446 -61.93458333 178.35564868 -59.40625 180.05078125 C-56.34142778 182.26348571 -56.34142778 182.26348571 -53.89892578 181.71484375 C-51.48720049 180.80695848 -50.19897711 179.49983471 -48.375 177.6875 C-40.44310151 170.62723871 -32.23899212 169.15775926 -21.83984375 169.62109375 C-12.39607133 170.55298177 -6.0678703 174.92231443 1 181 C4.62125195 177.96997286 8.12881539 174.93217419 11.4375 171.5625 C14.55180029 168.39195952 17.8278105 165.46739422 21.203125 162.578125 C21.79609375 162.05734375 22.3890625 161.5365625 23 161 C23.57363281 160.5771875 24.14726562 160.154375 24.73828125 159.71875 C26.73366803 157.00057605 26.13196629 154.54531973 25.9375 151.25 C25.80979835 145.0628549 26.05826488 141.79400218 30 137 C32.75 135.0625 32.75 135.0625 35 134 C34.34485797 125.93031407 32.06612985 118.27666743 29.9375 110.5 C29.55614707 109.09127935 29.17528343 107.68242615 28.79492188 106.2734375 C27.86892205 102.84741051 26.93629766 99.42322897 26 96 C24.980271 95.94739014 23.96054199 95.89478027 22.90991211 95.84057617 C21.55320209 95.76256388 20.1965137 95.68417475 18.83984375 95.60546875 C18.16997437 95.57191284 17.50010498 95.53835693 16.80993652 95.50378418 C7.88940078 94.96686223 1.4563203 91.82427565 -5.40625 86.26953125 C-6.98775482 84.91967286 -6.98775482 84.91967286 -9 84 Z M20.93139648 175.51806641 C19.18530259 177.37733984 17.38513147 179.16703781 15.56835938 180.95703125 C14.43120189 182.12140381 13.2976039 183.28926561 12.16796875 184.4609375 C11.36361641 185.26149063 11.36361641 185.26149063 10.54301453 186.07821655 C8.5419778 188.26407405 7.04375681 190.07096515 6.90098572 193.10224915 C7.16606378 195.53784501 7.16606378 195.53784501 8 199 C8.43367691 205.28327248 7.6084497 210.92523017 6 217 C11.02031713 220.4609762 16.12933752 223.78834718 21.3125 227 C22.29863281 227.61875 23.28476562 228.2375 24.30078125 228.875 C26.88124952 230.27728259 26.88124952 230.27728259 29.1953125 229.38671875 C31.02470142 227.98101947 32.20624611 226.67044028 33.5625 224.8125 C39.30555055 217.83360313 47.9522918 213.79608878 56 210 C52.76021365 195.55176024 48.90649651 181.28045163 45 167 C33.55639892 162.33271365 28.47216245 167.45477889 20.93139648 175.51806641 Z M-93 169 C-95.21531661 171.22712063 -95.21531661 171.22712063 -97 174 C-96.42407035 178.28647082 -93.91491152 181.61935744 -91.625 185.1875 C-91.17801758 185.89310059 -90.73103516 186.59870117 -90.27050781 187.32568359 C-86.68476348 192.97129707 -83.05171172 198.58702141 -79.40454102 204.19311523 C-76.68643389 208.37485516 -73.99738786 212.57346863 -71.33203125 216.7890625 C-70.70651367 217.7776123 -70.08099609 218.76616211 -69.43652344 219.78466797 C-68.21203042 221.72222557 -66.98991999 223.66129151 -65.77050781 225.60205078 C-63.0389465 229.92167453 -60.32980968 234.10567714 -57 238 C-54.36 235.69 -51.72 233.38 -49 231 C-50.97891043 227.04217914 -53.21497426 223.37711606 -55.5625 219.6328125 C-58.5802524 214.10573337 -59.29875949 209.23053169 -59.1875 203 C-59.18685547 202.31421875 -59.18621094 201.6284375 -59.18554688 200.921875 C-59.15059718 196.85217771 -58.77979754 192.99256341 -58 189 C-65.97301253 183.97064145 -74.06959689 179.18404698 -82.25 174.5 C-83.19125732 173.95956055 -84.13251465 173.41912109 -85.10229492 172.86230469 C-85.98119385 172.36118164 -86.86009277 171.86005859 -87.765625 171.34375 C-88.55743164 170.89193359 -89.34923828 170.44011719 -90.16503906 169.97460938 C-91.8009054 168.92182083 -91.8009054 168.92182083 -93 169 Z M-102 177 C-106.81122847 178.52555966 -106.81122847 178.52555966 -110 182 C-110.38671458 184.79799997 -110.72554529 187.58645344 -111.03149414 190.39355469 C-111.12917587 191.26203033 -111.2268576 192.13050598 -111.32749939 193.02529907 C-111.65056205 195.90707644 -111.96800346 198.78944168 -112.28515625 201.671875 C-112.50768868 203.67249181 -112.73046516 205.67308148 -112.95347595 207.67364502 C-113.42075129 211.87330661 -113.88529494 216.07325901 -114.34790039 220.2734375 C-114.9404684 225.65191313 -115.53937501 231.02965968 -116.14029789 236.40720749 C-116.60169334 240.54194521 -117.05989387 244.67703214 -117.51711845 248.81223297 C-117.73666179 250.79463341 -117.9571506 252.77692938 -118.17860603 254.75911713 C-118.48825019 257.53535691 -118.7936347 260.31203349 -119.09790039 263.08886719 C-119.2358049 264.31414627 -119.2358049 264.31414627 -119.37649536 265.56417847 C-119.82861676 269.73367216 -120.09697943 273.79778538 -120 278 C-118.0848421 278.81604999 -116.16781166 279.62770632 -114.25 280.4375 C-113.18265625 280.88996094 -112.1153125 281.34242188 -111.015625 281.80859375 C-110.02046875 282.20175781 -109.0253125 282.59492188 -108 283 C-107.35675781 283.25918213 -106.71351563 283.51836426 -106.05078125 283.78540039 C-103.89717985 284.2386403 -103.89717985 284.2386403 -102.11230469 282.6640625 C-101.47196289 281.99117188 -100.83162109 281.31828125 -100.171875 280.625 C-99.45386719 279.88636719 -98.73585938 279.14773438 -97.99609375 278.38671875 C-97.25488281 277.59910156 -96.51367188 276.81148438 -95.75 276 C-94.28900273 274.47672221 -92.82547492 272.9558673 -91.359375 271.4375 C-90.26689453 270.30550171 -90.26689453 270.30550171 -89.15234375 269.15063477 C-86.56954017 266.56988196 -83.84293572 264.20909125 -81.07128906 261.83544922 C-77.03786442 258.2612759 -73.28915885 254.3917721 -69.5 250.5625 C-68.67757812 249.73556641 -67.85515625 248.90863281 -67.0078125 248.05664062 C-65.00287887 246.04005041 -63.00033747 244.02114764 -61 242 C-62.68869122 237.58537962 -64.90442726 233.72538131 -67.4375 229.75 C-67.8799707 229.04891113 -68.32244141 228.34782227 -68.77832031 227.62548828 C-72.34306001 221.99279874 -75.96046789 216.39403412 -79.59570312 210.80664062 C-82.31363119 206.62491961 -85.0026725 202.42643591 -87.66796875 198.2109375 C-88.29348633 197.2223877 -88.91900391 196.23383789 -89.56347656 195.21533203 C-90.78796958 193.27777443 -92.01008001 191.33870849 -93.22949219 189.39794922 C-95.9610535 185.07832547 -98.67019032 180.89432286 -102 177 Z M2 224 C0.96409662 225.06893218 -0.05333942 226.15578488 -1.0625 227.25 C-7.67219608 233.94079665 -15.98463146 237.06995714 -25.375 237.1875 C-28.18170104 237.17985231 -30.60523457 237.10500495 -33.3203125 236.3828125 C-35.89998108 235.70784545 -37.37133325 235.4314032 -40 236 C-44.14303934 239.28641612 -47.56791006 242.99054913 -51 247 C-47.84461976 253.6894061 -44.04769554 259.81475738 -40 266 C-39.43796875 265.84015625 -38.8759375 265.6803125 -38.296875 265.515625 C-31.35782881 263.95787994 -24.24047692 264.48973173 -18 268 C-14.8741302 270.70908716 -12.37670709 273.62257414 -10 277 C-3.30570458 276.35524622 2.96000376 274.84306423 9.4375 273.0625 C10.44232422 272.79759766 11.44714844 272.53269531 12.48242188 272.25976562 C13.43568359 272.00001953 14.38894531 271.74027344 15.37109375 271.47265625 C16.23661865 271.23812744 17.10214355 271.00359863 17.99389648 270.76196289 C20.18844524 270.18756941 20.18844524 270.18756941 21 268 C20.99581745 266.24751227 20.98553818 264.49469249 20.93530273 262.74291992 C20.67428356 253.57554606 22.09318877 245.7204337 25 237 C21.35624684 234.82982022 17.70966089 232.66444711 14.0625 230.5 C13.02158203 229.87996094 11.98066406 229.25992188 10.90820312 228.62109375 C9.91884766 228.03457031 8.92949219 227.44804687 7.91015625 226.84375 C6.99371338 226.29912109 6.07727051 225.75449219 5.13305664 225.19335938 C3.26191291 223.91862593 3.26191291 223.91862593 2 224 Z M177.0480957 234.45288086 C175.28650871 234.92853737 175.28650871 234.92853737 173.48933411 235.4138031 C172.23086166 235.76064651 170.97238922 236.10748993 169.67578125 236.46484375 C168.36505763 236.82166289 167.05419828 237.17798381 165.74320984 237.53382874 C163.00278875 238.27904397 160.26353922 239.02837194 157.52514648 239.78100586 C154.0127149 240.74631262 150.49832164 241.70422162 146.98313618 242.65944576 C144.27950472 243.39446848 141.57653432 244.13189552 138.87380028 244.87021065 C136.94729931 245.39646574 135.02056406 245.92186292 133.09382629 246.44725037 C131.92889145 246.76750687 130.7639566 247.08776337 129.5637207 247.41772461 C128.53511429 247.69974228 127.50650787 247.98175995 126.44673157 248.27232361 C124.02331154 248.91597523 124.02331154 248.91597523 122 250 C122.03480469 251.08796875 122.06960938 252.1759375 122.10546875 253.296875 C122.33073889 263.52857488 121.25611629 272.23165113 118 282 C124.79761442 286.71223911 131.8419932 290.84791608 139.0625 294.875 C140.11888672 295.46796875 141.17527344 296.0609375 142.26367188 296.671875 C144.84067223 298.11779375 147.41945281 299.560424 150 301 C150.61488281 300.57847656 151.22976563 300.15695312 151.86328125 299.72265625 C152.67152344 299.17480469 153.47976563 298.62695312 154.3125 298.0625 C155.11300781 297.51722656 155.91351563 296.97195313 156.73828125 296.41015625 C160.50138022 294.06390629 163.84073401 293.76467593 168.1875 293.4375 C169.21399658 293.36023682 170.24049316 293.28297363 171.2980957 293.20336914 C172.18972412 293.13625732 173.08135254 293.06914551 174 293 C178.26786592 283.23486238 181.91356405 273.26679735 185.46850586 263.22460938 C186.12043529 261.39151983 186.77909137 259.56081015 187.4440918 257.73242188 C188.41360847 255.0661918 189.363256 252.39363349 190.30859375 249.71875 C190.75989906 248.49375793 190.75989906 248.49375793 191.22032166 247.24401855 C191.61677635 246.10132507 191.61677635 246.10132507 192.02124023 244.93554688 C192.25930893 244.27002808 192.49737762 243.60450928 192.74266052 242.91882324 C193.08529215 240.36402856 192.31204703 239.17448052 191 237 C190.566875 236.2575 190.13375 235.515 189.6875 234.75 C188.14413775 232.76713706 188.14413775 232.76713706 185.76652527 232.79981995 C182.70248632 233.02152748 180.01246491 233.64429544 177.0480957 234.45288086 Z M-56.78515625 252.72265625 C-58.28540632 254.26407956 -59.78541243 255.80574037 -61.28515625 257.34765625 C-63.31464444 259.33042241 -65.34168333 261.16487671 -67.49609375 263 C-73.63751194 268.32390812 -79.2779258 274.17226185 -85 279.9375 C-86.16773374 281.11026009 -87.33570074 282.28278798 -88.50390625 283.45507812 C-91.33863234 286.30071689 -94.17018824 289.14947453 -97 292 C-95.69844994 296.07964281 -95.69844994 296.07964281 -94 300 C-80.59348716 296.94079573 -67.29300158 293.51754357 -54 290 C-53.88390381 289.25814453 -53.76780762 288.51628906 -53.64819336 287.75195312 C-53.48456299 286.77162109 -53.32093262 285.79128906 -53.15234375 284.78125 C-52.99499756 283.81251953 -52.83765137 282.84378906 -52.67553711 281.84570312 C-51.33990319 276.2193392 -48.12427113 271.94390942 -44 268 C-45.4862147 263.80591769 -47.58278016 260.37332677 -50.0625 256.6875 C-50.77535156 255.61886719 -51.48820312 254.55023438 -52.22265625 253.44921875 C-53.10244141 252.23685547 -53.10244141 252.23685547 -54 251 C-55.29353339 250.88426704 -55.29353339 250.88426704 -56.78515625 252.72265625 Z M14.08984375 278.49609375 C12.93548828 278.80740234 11.78113281 279.11871094 10.59179688 279.43945312 C9.38587891 279.76880859 8.17996094 280.09816406 6.9375 280.4375 C5.72771484 280.76298828 4.51792969 281.08847656 3.27148438 281.42382812 C-2.49890813 282.84296919 -2.49890813 282.84296919 -8 285 C-8.36885639 286.88233856 -8.64544704 288.78314738 -8.875 290.6875 C-9.65088963 295.9560409 -10.79876259 298.83839137 -14 303 C-14 306.44012139 -13.3420575 307.39843153 -11.515625 310.23828125 C-10.99226562 311.05876953 -10.46890625 311.87925781 -9.9296875 312.72460938 C-9.37539062 313.57861328 -8.82109375 314.43261719 -8.25 315.3125 C-7.71117187 316.15490234 -7.17234375 316.99730469 -6.6171875 317.86523438 C-3.79038049 322.27436384 -0.92154758 326.65313431 2 331 C3.216875 330.67 4.43375 330.34 5.6875 330 C9.79621787 329.06692343 13.6221324 328.89484111 17.83203125 328.9375 C18.99065674 328.94652344 20.14928223 328.95554687 21.34301758 328.96484375 C22.21982178 328.97644531 23.09662598 328.98804688 24 329 C25.95837843 325.51352184 27.91553502 322.02636095 29.87158203 318.53857422 C30.53661429 317.35316636 31.20197499 316.1679427 31.86767578 314.98291016 C32.82671909 313.27555504 33.78446784 311.56747295 34.7421875 309.859375 C35.60626221 308.31975098 35.60626221 308.31975098 36.48779297 306.74902344 C37.71355207 304.52073034 38.88593728 302.28550206 40 300 C39.5153125 299.65710938 39.030625 299.31421875 38.53125 298.9609375 C31.03461166 293.10779295 27.18128591 285.36257182 23 277 C19.73702498 277 17.23859602 277.64451732 14.08984375 278.49609375 Z M114 289 C112.6944702 290.50894955 111.40618633 292.03282736 110.125 293.5625 C103.57230795 300.92906145 96.00281003 305.2766156 87 309 C90.23978635 323.44823976 94.09350349 337.71954837 98 352 C98.65226562 352.10957031 99.30453125 352.21914063 99.9765625 352.33203125 C105.1197623 353.26508962 109.41899779 354.34784083 114 357 C114.99257813 356.18917969 115.98515625 355.37835938 117.0078125 354.54296875 C118.37996268 353.42417782 119.75237845 352.30571257 121.125 351.1875 C121.84405518 350.60162109 122.56311035 350.01574219 123.30395508 349.41210938 C128.61133963 345.09953161 133.96621498 340.85355337 139.39306641 336.69213867 C142.86922373 333.99772352 145.95799614 331.16052349 149 328 C148.66097656 327.32839844 148.32195312 326.65679687 147.97265625 325.96484375 C146.42150092 321.23662329 147.33902662 316.58973282 147.80859375 311.69140625 C146.90239932 307.55443167 146.54267256 307.22030427 143.22265625 304.95703125 C141.49690477 303.94509095 139.75444732 302.9613303 138 302 C137.04923584 301.44417236 136.09847168 300.88834473 135.11889648 300.31567383 C132.09628442 298.55357209 129.0523779 296.83495061 126 295.125 C124.95199219 294.53203125 123.90398437 293.9390625 122.82421875 293.328125 C118.63412586 290.48013103 118.63412586 290.48013103 114 289 Z M52 308 C47.83521686 313.88310715 44.11132744 320.01590675 40.5 326.25 C40.03029785 327.03036621 39.5605957 327.81073242 39.07666016 328.61474609 C36.45384403 332.95721644 36.45384403 332.95721644 36.58984375 337.82421875 C37.05519531 338.54222656 37.52054688 339.26023437 38 340 C38.34160156 340.62003906 38.68320312 341.24007812 39.03515625 341.87890625 C39.37417969 342.43449219 39.71320313 342.99007812 40.0625 343.5625 C43.96268481 350.48218272 44.36710423 358.97737795 42.28125 366.640625 C40.25566395 371.44322419 37.5224242 375.18404045 34 379 C35.28480681 382.43852482 36.77527597 385.44758426 38.75 388.5390625 C39.53890625 389.78042969 39.53890625 389.78042969 40.34375 391.046875 C40.8903125 391.89765625 41.436875 392.7484375 42 393.625 C42.5465625 394.48351562 43.093125 395.34203125 43.65625 396.2265625 C45.74489792 399.50287296 47.84469006 402.76703509 50 406 C54.25943799 404.57505239 57.05651685 402.49331063 60.4375 399.5625 C65.57097494 395.16249479 70.82407071 390.95580034 76.19116211 386.84399414 C79.72797599 384.10490372 82.90008111 381.22739219 86 378 C85.649375 377.195625 85.29875 376.39125 84.9375 375.5625 C83.40224578 369.72853397 83.93049763 365.02441521 86.75 359.6875 C88.96984406 357.0360196 91.27867938 355.11307843 94 353 C90.76021365 338.55176024 86.90649651 324.28045163 83 310 C82.12432373 310.01571045 82.12432373 310.01571045 81.23095703 310.03173828 C78.52901699 310.07388108 75.82714649 310.09950805 73.125 310.125 C72.2071875 310.14175781 71.289375 310.15851563 70.34375 310.17578125 C63.99187394 310.22051277 58.17389964 309.48851563 52 308 Z " fill="#FFFFFF" transform="translate(240,74)"/>
<path d="M0 0 C4.67217693 3.59312655 7.41494216 8.97110782 10.3125 14 C10.69019531 13.57589844 11.06789063 13.15179688 11.45703125 12.71484375 C20.56302553 3.01173509 33.03766289 -4.34762939 46.51171875 -5.203125 C57.39946337 -5.34943288 66.63741329 -4.27256891 74.8671875 3.4609375 C82.74145666 11.80531228 84.47966283 22.09112192 84.42602539 33.20849609 C84.42617142 34.00916504 84.42631744 34.80983398 84.4264679 35.63476562 C84.4257748 38.26435109 84.41801076 40.8938645 84.41015625 43.5234375 C84.40828993 45.35332195 84.40686704 47.18320691 84.40586853 49.01309204 C84.40206023 53.81676628 84.3922444 58.62041003 84.38116455 63.42407227 C84.37091411 68.33088773 84.36636314 73.23770815 84.36132812 78.14453125 C84.35062056 87.76303635 84.33303747 97.38151086 84.3125 107 C74.4125 107 64.5125 107 54.3125 107 C54.29062622 103.70032227 54.29062622 103.70032227 54.26831055 100.33398438 C54.21785246 93.0456139 54.15123785 85.75745455 54.07678509 78.46929169 C54.03215978 74.05278874 53.99288663 69.63637636 53.96606445 65.21972656 C53.93995292 60.95312398 53.8994957 56.68687142 53.84931374 52.42048645 C53.8326979 50.79714835 53.82115084 49.17374979 53.81488609 47.55033875 C53.91999493 35.91453898 53.91999493 35.91453898 50.3125 25 C47.28593762 22.06801769 44.51014416 21.1247546 40.3125 20.6875 C31.38920964 20.9124569 23.31725997 25.41191826 16.64584351 31.0463562 C12.05307842 36.86007033 12.85536886 43.7865995 13.01953125 50.84765625 C13.01760666 52.47148383 13.01082936 54.09531221 12.99943542 55.71910095 C12.98252624 59.96665737 13.03097735 64.21097931 13.09362793 68.45800781 C13.14595366 72.80206179 13.13567583 77.14593444 13.13085938 81.49023438 C13.13056092 89.99475084 13.20518504 98.49616001 13.3125 107 C3.4125 107 -6.4875 107 -16.6875 107 C-16.70208252 104.80021484 -16.71666504 102.60042969 -16.73168945 100.33398438 C-16.78214754 93.0456139 -16.84876215 85.75745455 -16.92321491 78.46929169 C-16.96784022 74.05278874 -17.00711337 69.63637636 -17.03393555 65.21972656 C-17.06004708 60.95312398 -17.1005043 56.68687142 -17.15068626 52.42048645 C-17.1673021 50.79714835 -17.17884916 49.17374979 -17.18511391 47.55033875 C-17.08000507 35.91453898 -17.08000507 35.91453898 -20.6875 25 C-24.52993271 21.27764332 -28.72476366 20.51998839 -34.0234375 20.59765625 C-41.98579998 21.80018313 -49.38433032 26.59203031 -54.94847107 32.27258301 C-58.58508119 37.97608343 -57.77387012 44.98788523 -57.6875 51.53125 C-57.69502735 53.13409387 -57.7060691 54.73692473 -57.72045898 56.33972168 C-57.74877451 60.53560624 -57.72968278 64.72995629 -57.70037842 68.92578125 C-57.67891389 73.21624536 -57.70274829 77.50643868 -57.72265625 81.796875 C-57.75502135 90.19841745 -57.73306393 98.59851842 -57.6875 107 C-67.5875 107 -77.4875 107 -87.6875 107 C-87.6875 70.7 -87.6875 34.4 -87.6875 -3 C-78.1175 -3 -68.5475 -3 -58.6875 -3 C-58.3575 1.95 -58.0275 6.9 -57.6875 12 C-56.81609375 11.26394531 -55.9446875 10.52789062 -55.046875 9.76953125 C-39.50486716 -3.07056844 -19.06858117 -11.62718364 0 0 Z " fill="#FFFFFF" transform="translate(758.6875,339)"/>
<path d="M0 0 C0.33 25.74 0.66 51.48 1 78 C3.97 76.02 6.94 74.04 10 72 C24.38963226 66.43600886 39.23111606 66.29956829 53.58203125 72.03125 C66.13526389 77.73901784 73.91594479 87.5006258 79.3125 100 C84.93748192 115.35402789 84.66780208 132.49102768 78.5234375 147.640625 C71.77707593 161.87267544 62.25196178 173.29678513 47.29296875 179.25390625 C34.12037562 183.54004814 20.66790163 182.54905201 8 177 C5.18908598 175.46835645 2.63746776 173.82593922 0 172 C-0.33 174.64 -0.66 177.28 -1 180 C-10.24 180 -19.48 180 -29 180 C-29.39407724 159.06849063 -29.69717436 138.13787893 -29.88080692 117.20340252 C-29.96835154 107.48221501 -30.08761725 97.76337885 -30.2824707 88.04370117 C-30.45229316 79.5685553 -30.56167338 71.09511219 -30.59950441 62.61831218 C-30.62161262 58.13165271 -30.67326349 53.64986251 -30.79741096 49.16477013 C-31.52338724 21.90080167 -31.52338724 21.90080167 -27.35502243 15.4570961 C-23.48633027 11.62090532 -19.20501987 9.52219576 -14.09324455 7.78196144 C-10.87817354 6.58092568 -8.31665215 4.76166515 -5.5 2.8125 C-1.1264637 0 -1.1264637 0 0 0 Z M0 103 C-0.31813365 104.86086072 -0.31813365 104.86086072 -0.29052734 107.00317383 C-0.30328705 107.82775589 -0.31604675 108.65233795 -0.32919312 109.50190735 C-0.33141876 110.39459824 -0.33364441 111.28728912 -0.3359375 112.20703125 C-0.3425943 113.12457687 -0.3492511 114.0421225 -0.35610962 114.98747253 C-0.36624731 116.93181348 -0.37092629 118.87618929 -0.37060547 120.82055664 C-0.37496763 123.79046405 -0.4112444 126.75887245 -0.44921875 129.72851562 C-0.45508893 131.61718242 -0.45905698 133.50585627 -0.4609375 135.39453125 C-0.47530853 136.28114944 -0.48967957 137.16776764 -0.50448608 138.08125305 C-0.47399206 142.21454139 -0.36553952 144.41686043 1.87426758 147.98999023 C4.14356643 150.13575083 6.35407339 151.69765895 9.0625 153.25 C9.91972656 153.75015625 10.77695312 154.2503125 11.66015625 154.765625 C18.46402374 158.35497746 27.68947544 158.25162367 35 156.12890625 C43.33164468 152.2551995 47.69046163 146.50415297 51.23828125 138.2109375 C54.59058757 128.48065351 54.27273522 116.87116457 50.2578125 107.4375 C45.84947085 98.89462675 41.04245562 95.01415187 32 92 C18.99046033 90.97032563 9.27719826 93.72280174 0 103 Z " fill="#FFFFFF" transform="translate(898,266)"/>
<path d="M0 0 C0.67804688 0.52851563 1.35609375 1.05703125 2.0546875 1.6015625 C13.20594387 11.45111579 18.1467632 27.10294714 19.2734375 41.4921875 C19.74372427 57.73516891 15.37726485 73.01224289 4.625 85.4375 C-6.21521655 96.56970892 -18.14313211 102.95322469 -33.96337891 103.2409668 C-44.95637539 103.28690545 -53.86053557 101.38593898 -64 97 C-63.89526367 98.23451904 -63.79052734 99.46903809 -63.68261719 100.7409668 C-61.03927727 134.73622784 -61.03927727 134.73622784 -65.81787109 143.23193359 C-70.15945442 147.617399 -75.28459909 150.10826409 -81.14233398 151.92138672 C-85.2978239 153.48985784 -89.11730491 155.84294717 -93 158 C-93 102.89 -93 47.78 -93 -9 C-83.76 -9 -74.52 -9 -65 -9 C-64.67 -6.03 -64.34 -3.06 -64 0 C-63.48953125 -0.38671875 -62.9790625 -0.7734375 -62.453125 -1.171875 C-43.61594448 -14.66517452 -18.25348246 -14.34683307 0 0 Z M-61 22 C-61.51911957 22.43757126 -62.03823914 22.87514252 -62.5730896 23.32597351 C-64.37110264 25.43537117 -64.39924511 26.53920859 -64.45166016 29.28442383 C-64.4740274 30.14574417 -64.49639465 31.00706451 -64.5194397 31.89448547 C-64.52591522 32.82262558 -64.53239075 33.75076569 -64.5390625 34.70703125 C-64.55141937 35.66518234 -64.56377625 36.62333344 -64.57650757 37.61051941 C-64.59608279 39.63880298 -64.60730749 41.66718169 -64.61083984 43.69555664 C-64.6249046 46.79150072 -64.69219851 49.88338581 -64.76171875 52.97851562 C-64.77412011 54.9505029 -64.78333821 56.92251329 -64.7890625 58.89453125 C-64.81578033 59.81659866 -64.84249817 60.73866608 -64.87002563 61.68867493 C-64.83101294 66.66613565 -64.83101294 66.66613565 -62.48092651 70.90844727 C-54.99917103 77.45239802 -46.13493415 79.85972979 -36.28125 79.5078125 C-28.83096266 78.35479184 -22.19270383 75.0514363 -17.4375 69.125 C-10.95349582 59.17014652 -9.56593956 47.78665848 -11.4609375 36.17578125 C-13.64784532 27.98130899 -17.5562866 21.25414226 -24.6875 16.5 C-36.8824742 9.95591071 -51.03695423 12.78118175 -61 22 Z " fill="#FFFFFF" transform="translate(1262,147)"/>
<path d="M0 0 C10.05277243 8.29646444 16.11959403 20.31226872 17.66015625 33.25 C17.79786782 37.02190885 17.7998317 40.78846473 17.78515625 44.5625 C17.78902344 45.57634766 17.79289063 46.59019531 17.796875 47.63476562 C17.79558594 48.59705078 17.79429687 49.55933594 17.79296875 50.55078125 C17.79184082 51.42903564 17.79071289 52.30729004 17.78955078 53.2121582 C17.66015625 55.25 17.66015625 55.25 16.66015625 56.25 C14.3596179 56.34443335 12.05613452 56.36742128 9.75366211 56.36352539 C9.03175186 56.36367142 8.30984161 56.36381744 7.5660553 56.3639679 C5.16900678 56.36326869 2.77203502 56.35547595 0.375 56.34765625 C-1.28266864 56.3457921 -2.94033782 56.34436818 -4.5980072 56.34336853 C-8.96938589 56.33954312 -13.34073156 56.32971265 -17.71209717 56.31866455 C-22.16938836 56.30845092 -26.62668486 56.30387101 -31.08398438 56.29882812 C-39.83595268 56.2880904 -48.58789411 56.27101371 -57.33984375 56.25 C-56.87451844 57.86394996 -56.40425301 59.4764762 -55.93188477 61.08837891 C-55.67053238 61.98650299 -55.40917999 62.88462708 -55.13990784 63.80996704 C-53.3696771 69.20881122 -49.79752361 72.92722379 -44.8359375 75.59765625 C-29.97428768 81.77709038 -15.50704539 79.2830678 -0.37451172 75.70751953 C2.28698829 75.10904929 4.96380285 74.65984572 7.66015625 74.25 C8.1665855 77.31147257 8.66414947 80.37432299 9.16015625 83.4375 C9.30324219 84.30181641 9.44632813 85.16613281 9.59375 86.05664062 C9.72910156 86.89775391 9.86445312 87.73886719 10.00390625 88.60546875 C10.12958984 89.37528076 10.25527344 90.14509277 10.38476562 90.93823242 C10.67753291 93.39586847 10.70605305 95.77730999 10.66015625 98.25 C6.87036426 99.07140822 3.07803128 99.88045801 -0.71484375 100.6875 C-1.77574219 100.91759766 -2.83664062 101.14769531 -3.9296875 101.38476562 C-24.72543355 105.78631924 -46.49634365 106.14134964 -65.15234375 94.4375 C-76.709258 86.07088566 -84.14865569 75.04609526 -86.90625 60.8984375 C-89.14199272 42.08597172 -86.92099385 24.9083078 -75.19921875 9.421875 C-56.7869235 -12.08059567 -23.11802359 -17.29027474 0 0 Z M-50.08984375 20.5 C-54.47235123 25.85639803 -56.19647377 30.38978011 -57.33984375 37.25 C-41.49984375 37.25 -25.65984375 37.25 -9.33984375 37.25 C-10.52733691 27.75005474 -12.4454384 23.45291868 -19.4609375 17.51171875 C-29.41706048 10.82600623 -41.35842224 13.35610967 -50.08984375 20.5 Z " fill="#FFFFFF" transform="translate(632.33984375,343.75)"/>
<path d="M0 0 C9.9 0 19.8 0 30 0 C30.01458252 2.16949219 30.02916504 4.33898437 30.04418945 6.57421875 C30.09465108 13.76280627 30.16126628 20.9511798 30.23571491 28.13955688 C30.28033726 32.49552541 30.31961103 36.85140216 30.34643555 41.20751953 C30.37255008 45.41576996 30.41300933 49.62366568 30.46318626 53.83169556 C30.47980009 55.43270436 30.49134839 57.03377444 30.49761391 58.63485718 C30.12453604 72.10338552 30.12453604 72.10338552 36.4375 83.4375 C41.07446435 86.26491729 45.61737173 86.63800769 51 86 C58.36657995 84.12350584 64.31586053 81.027246 70 76 C70.52024246 75.62002365 71.04048492 75.2400473 71.57649231 74.84855652 C73.76909586 72.00125782 73.4018099 69.50968915 73.43237305 65.95825195 C73.4425647 65.24580322 73.45275635 64.53335449 73.46325684 63.79931641 C73.49343951 61.44555858 73.50266047 59.09220735 73.51171875 56.73828125 C73.5285616 55.10587709 73.5467113 53.47348594 73.56611633 51.84111023 C73.6136656 47.54544131 73.64344292 43.24982509 73.66955566 38.95397949 C73.69933646 34.57012522 73.74587525 30.18645264 73.79101562 25.80273438 C73.87710489 17.20189693 73.94287619 8.60107866 74 0 C83.9 0 93.8 0 104 0 C104 36.3 104 72.6 104 110 C94.43 110 84.86 110 75 110 C74.67 105.38 74.34 100.76 74 96 C72.246875 97.381875 70.49375 98.76375 68.6875 100.1875 C63.15038196 104.41421488 57.55861556 107.56481981 51 110 C50.34902344 110.24492187 49.69804688 110.48984375 49.02734375 110.7421875 C38.3846686 114.04119084 25.94972078 112.7519153 16 108 C6.92261244 101.76465551 2.664223 94.92541287 0.40777969 84.39088631 C-0.21673478 80.72924466 -0.26334031 77.15733857 -0.22705078 73.45092773 C-0.22734283 72.64982071 -0.22763489 71.84871368 -0.22793579 71.02333069 C-0.22655706 68.40996973 -0.21106552 65.79690408 -0.1953125 63.18359375 C-0.19157718 61.35799821 -0.18873266 59.53240064 -0.18673706 57.70680237 C-0.17914149 52.92778887 -0.15952847 48.14889908 -0.1373291 43.36993408 C-0.11678238 38.48296786 -0.10771655 33.59598144 -0.09765625 28.70898438 C-0.07627834 19.13926013 -0.04112989 9.56965976 0 0 Z " fill="#FFFFFF" transform="translate(1038,138)"/>
<path d="M0 0 C10.89 0 21.78 0 33 0 C34.86527344 4.68058594 36.73054688 9.36117188 38.65234375 14.18359375 C39.83239803 17.14139017 41.01260347 20.09912446 42.19335938 23.05664062 C44.06911964 27.75502171 45.94430397 32.45362714 47.81616211 37.15356445 C49.32465275 40.94104195 50.83563913 44.7275147 52.34839058 48.51329231 C52.92623195 49.96067573 53.50315998 51.40842411 54.07917595 52.85653496 C54.88364968 54.87854493 55.69130735 56.89925434 56.49975586 58.91967773 C56.95942245 60.07217514 57.41908905 61.22467255 57.89268494 62.41209412 C58.76098747 64.88496498 58.76098747 64.88496498 60 66 C60.2902002 65.24420654 60.58040039 64.48841309 60.87939453 63.7097168 C69.07163643 42.39935635 77.48182751 21.18202361 86 0 C96.56 0 107.12 0 118 0 C117.15438496 4.2280752 116.20931899 7.03291603 114.40234375 10.85546875 C113.85658691 12.01723633 113.31083008 13.17900391 112.74853516 14.37597656 C112.14494031 15.64652407 111.54125928 16.91703063 110.9375 18.1875 C110.30726547 19.52417161 109.6775566 20.86109118 109.04833984 22.19824219 C107.7169632 25.02532123 106.3824319 27.8508794 105.04541016 30.67529297 C103.04788107 34.89607204 101.05978042 39.12123665 99.07421875 43.34765625 C96.41266708 49.01160133 93.74892816 54.67450711 91.08203125 60.3359375 C90.57845093 61.40496559 90.57845093 61.40496559 90.06469727 62.49559021 C88.35782987 66.11867178 86.65052874 69.74154865 84.94287109 73.36425781 C78.0743347 87.93576952 71.21160661 102.5092821 64.4375 117.125 C59.89528076 126.92338971 55.34499537 136.71792018 50.77127075 146.50164795 C50.09378875 147.9516801 49.41708393 149.40207563 48.74118042 150.85284424 C47.80349085 152.86511493 46.86305076 154.87607676 45.921875 156.88671875 C45.38143555 158.04389404 44.84099609 159.20106934 44.28417969 160.39331055 C43 163 43 163 42 164 C39.78144736 164.08783542 37.56011504 164.10694609 35.33984375 164.09765625 C34.34314415 164.09553383 34.34314415 164.09553383 33.3263092 164.09336853 C31.19666101 164.08775518 29.06711661 164.07520054 26.9375 164.0625 C25.49674631 164.05748671 24.05599097 164.05292351 22.61523438 164.04882812 C19.07678898 164.03778145 15.53840461 164.02050792 12 164 C16.79831747 153.66030654 21.75777452 143.42555446 26.98046875 133.29296875 C28.00874654 131.28595226 29.03673951 129.27878982 30.06445312 127.27148438 C31.63929954 124.19640649 33.22006923 121.12509637 34.81860352 118.06225586 C36.39104182 115.04409328 37.93782938 112.01394568 39.48046875 108.98046875 C39.96565475 108.06484665 40.45084076 107.14922455 40.95072937 106.20585632 C43.52505368 101.24575114 43.52505368 101.24575114 43.48266602 95.81176758 C42.99338623 94.88388428 42.50410645 93.95600098 42 93 C41.51370117 91.90236328 41.02740234 90.80472656 40.52636719 89.67382812 C39.95330978 88.45800808 39.37661651 87.24389709 38.796875 86.03125 C38.48266602 85.36673828 38.16845703 84.70222656 37.84472656 84.01757812 C37.16859518 82.58857246 36.49093575 81.16028895 35.81188965 79.73266602 C34.36394494 76.68830358 32.9236141 73.64035888 31.48272705 70.59265137 C30.7415387 69.02516603 29.99995868 67.45786584 29.25799561 65.89074707 C24.01799063 54.82156444 18.84888738 43.71938921 13.68457031 32.61474609 C12.24161281 29.51845208 10.79294126 26.42497171 9.34094238 23.33291626 C8.47815641 21.49373639 7.61794615 19.65337754 6.75878906 17.8125 C5.6947815 15.53311978 4.62662893 13.25566837 3.55371094 10.98046875 C3.08481445 9.97242188 2.61591797 8.964375 2.1328125 7.92578125 C1.71918457 7.04317627 1.30555664 6.16057129 0.87939453 5.2512207 C0 3 0 3 0 0 Z " fill="#FFFFFF" transform="translate(1300,336)"/>
<path d="M0 0 C9.13563543 9.31165924 12.13534663 20.68687567 12.11352539 33.47412109 C12.11367142 34.19676147 12.11381744 34.91940186 12.1139679 35.66394043 C12.11327561 38.03380416 12.10551546 40.40358763 12.09765625 42.7734375 C12.09578964 44.42395993 12.09436688 46.07448292 12.09336853 47.7250061 C12.0895625 52.05521187 12.07974866 56.38538374 12.06866455 60.71557617 C12.05840917 65.13980654 12.05386209 69.56404241 12.04882812 73.98828125 C12.03812458 82.6588714 12.02054338 91.32942757 12 100 C2.76 100 -6.48 100 -16 100 C-16.495 96.04 -16.495 96.04 -17 92 C-17.66644531 92.47050781 -18.33289063 92.94101563 -19.01953125 93.42578125 C-31.32446241 101.73806342 -44.07375872 104.07951044 -58.6328125 101.30859375 C-68.5920541 98.5472727 -76.06246185 93.49810147 -82 85 C-86.49417306 76.16662537 -87.38267738 66.46317823 -84.875 56.875 C-82.05240976 48.49912755 -76.54446255 42.48409855 -69 38 C-53.57252414 30.62778635 -36.87497763 31.40906958 -21 37 C-19.65048388 37.63326808 -18.30795005 38.28481549 -17 39 C-17.39953083 36.6209755 -17.81888905 34.24833244 -18.25 31.875 C-18.35957031 31.20984375 -18.46914063 30.5446875 -18.58203125 29.859375 C-19.58774483 24.46028103 -21.34181894 19.92889878 -25.96484375 16.57421875 C-26.61582031 16.28160156 -27.26679687 15.98898438 -27.9375 15.6875 C-28.91009766 15.22923828 -28.91009766 15.22923828 -29.90234375 14.76171875 C-41.33202996 10.61127404 -53.56448223 13.39734089 -65 16 C-66.66555006 16.33886856 -68.33177229 16.67456922 -70 17 C-72.15626379 9.45307674 -73.04905387 1.76943218 -74 -6 C-50.86027647 -13.12523624 -19.54880758 -17.66037178 0 0 Z M-53.8125 57.375 C-57.18524591 61.42229509 -58.02184877 63.6235272 -57.9375 68.9375 C-57.2048271 73.4009096 -55.3217659 75.89487101 -52 79 C-45.81722687 82.8642332 -39.12968455 82.90495403 -32 82 C-28.30679597 80.78559055 -25.23145419 79.14429209 -22 77 C-20.96875 76.34 -19.9375 75.68 -18.875 75 C-15.78403302 70.05445284 -16.62610383 64.67491299 -17 59 C-18.91411557 58.01585567 -20.8313967 57.03786651 -22.75 56.0625 C-23.81734375 55.51722656 -24.8846875 54.97195312 -25.984375 54.41015625 C-35.39981644 50.00733972 -45.7993235 50.60831762 -53.8125 57.375 Z " fill="#FFFFFF" transform="translate(831,148)"/>
<path d="M0 0 C8.53712882 8.53712882 12.84878025 19.13960867 12.87442017 31.19515991 C12.86902725 32.23417953 12.86902725 32.23417953 12.86352539 33.29418945 C12.86367142 34.03619095 12.86381744 34.77819244 12.8639679 35.54267883 C12.86327404 37.9829099 12.8555064 40.4230636 12.84765625 42.86328125 C12.8457902 44.56007343 12.84436718 46.25686615 12.84336853 47.95365906 C12.8395581 52.4104665 12.82974043 56.86724113 12.81866455 61.32403564 C12.8084187 65.87552446 12.80386412 70.42701859 12.79882812 74.97851562 C12.78811681 83.90236045 12.77053197 92.82617236 12.75 101.75 C3.51 101.75 -5.73 101.75 -15.25 101.75 C-15.25 98.78 -15.25 95.81 -15.25 92.75 C-15.93964844 93.22050781 -16.62929687 93.69101562 -17.33984375 94.17578125 C-30.23528816 102.71967652 -42.96437427 105.61541098 -58.4296875 102.54296875 C-68.28955563 99.77073436 -75.80443578 94.62329926 -81.171875 85.91015625 C-85.51323613 77.21170442 -85.72227067 66.2826501 -83.59765625 56.85546875 C-80.15922055 48.42908769 -73.41084135 41.63822695 -65.25 37.75 C-50.31182874 31.79962845 -33.83725234 33.00454832 -19.09375 38.9453125 C-18.4853125 39.21085937 -17.876875 39.47640625 -17.25 39.75 C-16.87992311 32.96525709 -17.2279257 26.32917385 -21.796875 20.91796875 C-27.95504478 15.31839402 -34.17808558 14.38550699 -42.25 14.4375 C-43.08144531 14.43878906 -43.91289063 14.44007813 -44.76953125 14.44140625 C-51.29976924 14.54171713 -57.22404099 15.47923686 -63.5625 17.09375 C-66.25 17.75 -66.25 17.75 -69.25 17.75 C-69.75812114 15.23056604 -70.25664534 12.70983127 -70.75 10.1875 C-70.96462891 9.13079102 -70.96462891 9.13079102 -71.18359375 8.05273438 C-72.05874925 3.53109762 -72.39523405 -0.64487028 -72.25 -5.25 C-69.41768453 -5.90058529 -66.58427799 -6.54556713 -63.75 -7.1875 C-62.95851563 -7.36990234 -62.16703125 -7.55230469 -61.3515625 -7.74023438 C-40.5125291 -12.43755748 -18.11774009 -12.54305083 0 0 Z M-55.25 61 C-57.04869219 65.94640351 -57.1158921 70.69920291 -55.0625 75.5625 C-50.26269246 81.35537117 -45.38386443 83.36001279 -37.9375 84.0625 C-30.2858304 83.41405342 -23.37812338 81.4596158 -17.7109375 76.046875 C-15.18701469 72.07878246 -15.17699901 68.32469546 -15.45703125 63.72265625 C-16.35556191 60.35427283 -17.03952384 59.41168479 -19.9375 57.5625 C-22.01311572 56.54518324 -22.01311572 56.54518324 -24.25 55.75 C-25.0028125 55.39164062 -25.755625 55.03328125 -26.53125 54.6640625 C-36.8622333 51.19071467 -47.97728631 52.8181971 -55.25 61 Z " fill="#FFFFFF" transform="translate(1081.25,344.25)"/>
<path d="M0 0 C-0.59355371 5.30018387 -2.37372632 9.58136893 -4.5625 14.375 C-4.89185547 15.11105469 -5.22121094 15.84710938 -5.56054688 16.60546875 C-6.36747805 18.40644557 -7.1828826 20.20362181 -8 22 C-11.71203089 21.41319583 -14.51991187 20.35507221 -17.8125 18.5625 C-26.59358171 14.08129901 -35.90429176 12.0750395 -45.5625 15.125 C-48.69745539 17.53650415 -49.45323389 19.09452776 -50 23 C-48.14837172 26.95823487 -46.50159876 28.6907828 -42.5 30.375 C-41.04980469 30.99181641 -41.04980469 30.99181641 -39.5703125 31.62109375 C-36.02993852 32.98843731 -32.46764415 34.26935305 -28.89160156 35.53930664 C-17.10475393 39.74611809 -5.97581022 44.36711474 0.09765625 56.125 C3.48406282 64.94540781 2.84035969 73.76887718 -0.67578125 82.4296875 C-5.24362577 91.29588719 -13.25843255 97.82346439 -22.5 101.3125 C-40.80045878 106.77737978 -59.26717201 103.56995032 -76 95 C-78.76551156 93.43137897 -81.36843431 91.78946467 -84 90 C-82.48968084 84.73877829 -80.09625809 80.32767414 -77.375 75.625 C-76.95476562 74.88894531 -76.53453125 74.15289062 -76.1015625 73.39453125 C-75.07247236 71.5936235 -74.03689244 69.79642682 -73 68 C-67.7233299 69.97229743 -62.79478759 72.59087968 -57.79492188 75.16601562 C-57.10849609 75.51470703 -56.42207031 75.86339844 -55.71484375 76.22265625 C-55.09730225 76.53984619 -54.47976074 76.85703613 -53.84350586 77.18383789 C-49.62106074 79.05321069 -45.65513485 79.1911829 -41.0625 79.25 C-39.85722656 79.27578125 -38.65195313 79.3015625 -37.41015625 79.328125 C-33.71817544 78.97288286 -31.92140964 78.23678592 -29 76 C-26.67122638 73.12405164 -26.67122638 73.12405164 -27.0625 69.5625 C-28.2199627 65.16414174 -29.26501449 64.49813821 -33 62 C-35.8380227 60.66852448 -38.74536462 59.57821362 -41.6875 58.5 C-42.89188721 58.04282593 -42.89188721 58.04282593 -44.12060547 57.57641602 C-47.44492092 56.31492402 -50.77746338 55.08049197 -54.12109375 53.87109375 C-63.5274615 50.36388331 -71.29590102 44.52626964 -76.3125 35.6875 C-78.85942483 25.73133931 -78.38064194 16.80218934 -73.3125 7.75 C-67.46276621 -1.25718047 -58.76822308 -6.82883156 -48.3125 -9.3125 C-30.85576207 -12.11756085 -15.20800598 -8.64091249 0 0 Z " fill="#FFFFFF" transform="translate(1195,344)"/>
<path d="M0 0 C-0.61303628 5.40508043 -2.44380693 9.92439045 -4.5625 14.875 C-4.89185547 15.65875 -5.22121094 16.4425 -5.56054688 17.25 C-6.36796786 19.16908756 -7.18319769 21.0848865 -8 23 C-10.81015809 21.89619976 -13.58354808 20.74329332 -16.34765625 19.52734375 C-25.03880469 15.76001126 -34.5894074 11.70361165 -44.0625 15.125 C-47.27508845 17.17558837 -48.71661252 18.40651505 -50 22 C-49.63204599 24.94363209 -48.80660885 26.36841732 -46.46533203 28.20166016 C-40.96706813 31.71935901 -35.35852872 33.81940321 -29.1875 35.875 C-17.82962889 39.85401577 -7.098442 43.88175201 -1 55 C3.10285311 63.64417906 3.13865391 72.54094167 0.09765625 81.55078125 C-4.77023983 92.4125992 -13.84200118 98.03242832 -24.54296875 102.23828125 C-42.39758256 107.77349539 -61.09778338 103.04313403 -77.109375 94.68359375 C-79.56331503 93.25433949 -81.7843913 91.76926035 -84 90 C-82.48968084 84.73877829 -80.09625809 80.32767414 -77.375 75.625 C-76.95476563 74.88894531 -76.53453125 74.15289062 -76.1015625 73.39453125 C-75.07247236 71.5936235 -74.03689244 69.79642682 -73 68 C-70.44804729 69.26282196 -67.91672471 70.56153157 -65.390625 71.875 C-64.01053016 72.58355444 -62.63031844 73.29188125 -61.25 74 C-60.57195313 74.35578125 -59.89390625 74.7115625 -59.1953125 75.078125 C-51.36998045 79.06517631 -42.71148366 81.74804803 -33.9453125 79.46484375 C-31.3127256 78.46533461 -29.34173687 77.39869302 -27.5 75.25 C-26.70484352 71.67179583 -26.88847694 69.51982303 -28 66 C-33.18535543 61.48680461 -39.94067769 59.32588561 -46.3125 57.0625 C-70.81159952 47.98339689 -70.81159952 47.98339689 -76.1328125 36.5703125 C-79.07652997 27.84524 -78.03183944 19.5545677 -75 11 C-69.62327241 0.82262278 -61.06842485 -4.47556255 -50.5 -8.25 C-32.65637502 -12.07363392 -16.03693087 -8.24687749 0 0 Z " fill="#FFFFFF" transform="translate(644,146)"/>
<path d="M0 0 C-2.33937611 7.66795502 -5.54768806 14.77137274 -9 22 C-12.87419355 21.22709356 -16.35184604 19.60202032 -19.9375 18 C-28.72349638 14.09093637 -37.22197229 12.43307723 -46.6875 15 C-47.450625 15.33 -48.21375 15.66 -49 16 C-49.27748242 17.41154099 -49.52093516 18.82979799 -49.75 20.25 C-49.88921875 21.03890625 -50.0284375 21.8278125 -50.171875 22.640625 C-50.19534285 25.10037877 -50.19534285 25.10037877 -48.5390625 27.0859375 C-45.13455522 29.65241222 -41.61411809 30.93943496 -37.625 32.375 C-36.00333979 32.98547655 -34.38225151 33.59747436 -32.76171875 34.2109375 C-31.95782715 34.51225586 -31.15393555 34.81357422 -30.32568359 35.12402344 C-6.94390886 43.93084768 -6.94390886 43.93084768 -0.875 55.984375 C2.41544206 63.56414331 2.26181701 73.68873281 -0.5625 81.4375 C-5.16239093 91.1020792 -12.6330506 96.84625578 -22.3359375 101 C-40.32054001 107.21394904 -58.56253228 103.33596963 -75.22265625 95.48046875 C-82.72497912 91.65670419 -82.72497912 91.65670419 -83.75854492 89.1887207 C-84.07670391 86.3047012 -83.29573734 84.98480403 -81.91015625 82.453125 C-81.45576172 81.60878906 -81.00136719 80.76445312 -80.53320312 79.89453125 C-79.80520508 78.58548828 -79.80520508 78.58548828 -79.0625 77.25 C-78.58103516 76.36183594 -78.09957031 75.47367187 -77.60351562 74.55859375 C-76.41305044 72.36625192 -75.21166274 70.18067616 -74 68 C-70.2517614 68.82850015 -67.58632488 70.34651243 -64.3125 72.375 C-54.60155418 78.0797414 -46.43522417 80.36740078 -35 79 C-30.69972267 77.4021267 -30.69972267 77.4021267 -28 74 C-27.55489376 70.06822819 -27.39082899 67.8525644 -29.73046875 64.578125 C-34.09150965 60.50972477 -40.17778206 59.01199774 -45.6875 57.0625 C-58.68599792 52.42915253 -69.48227934 48.01227708 -76.875 35.9375 C-79.59917653 28.69477918 -78.99718252 19.69982671 -76.3125 12.5625 C-75.58553208 11.02021737 -74.81683244 9.49663049 -74 8 C-73.649375 7.35417969 -73.29875 6.70835937 -72.9375 6.04296875 C-67.8994318 -1.98645244 -58.79931378 -6.27207284 -50 -9 C-33.68076293 -12.33045654 -14.02059818 -9.34706545 0 0 Z " fill="#FFFFFF" transform="translate(1293,344)"/>
<path d="M0 0 C0 11.88 0 23.76 0 36 C9.9 36 19.8 36 30 36 C30 44.25 30 52.5 30 61 C20.1 61 10.2 61 0 61 C0.07397917 68.59944633 0.15679672 76.19771152 0.26245117 83.79663086 C0.29570111 86.38152954 0.32373277 88.96650084 0.34643555 91.55151367 C0.37997927 95.26773009 0.43229728 98.98328101 0.48828125 102.69921875 C0.49467117 103.85459641 0.5010611 105.00997406 0.50764465 106.20036316 C0.52743881 107.28110611 0.54723297 108.36184906 0.56762695 109.4753418 C0.58428154 110.89764351 0.58428154 110.89764351 0.60127258 112.34867859 C1.07762057 115.51613474 2.13435397 117.41561903 4 120 C7.88780637 122.24270696 11.391095 122.21432131 15.8125 122.125 C17.55466797 122.09792969 17.55466797 122.09792969 19.33203125 122.0703125 C20.21246094 122.04710937 21.09289062 122.02390625 22 122 C24.72927213 129.53798969 26.42467319 137.14571103 28 145 C13.47503043 148.55195762 -2.34418293 150.98541958 -16.16796875 143.88671875 C-22.43907428 139.89815444 -25.63588139 133.91165887 -28 127 C-29.82555015 118.64625579 -30.27394843 110.54190804 -30.1953125 102.015625 C-30.1924826 100.83401794 -30.18965271 99.65241089 -30.18673706 98.43499756 C-30.17565209 94.70655659 -30.1505698 90.97836685 -30.125 87.25 C-30.11495509 84.7031285 -30.1058319 82.15625319 -30.09765625 79.609375 C-30.07575113 73.40615501 -30.0413033 67.20311992 -30 61 C-36.6 61 -43.2 61 -50 61 C-50 55 -50 55 -48.27172852 52.86035156 C-47.48209717 52.2103418 -46.69246582 51.56033203 -45.87890625 50.890625 C-45.02651367 50.14482178 -44.17412109 49.39901855 -43.29589844 48.63061523 C-42.39387695 47.84501221 -41.49185547 47.05940918 -40.5625 46.25 C-33.19207504 39.89153356 -33.19207504 39.89153356 -30.04296875 31.10546875 C-30.06149016 29.54805969 -30.12955105 27.99035481 -30.25 26.4375 C-30.79874398 19.05598279 -30.79874398 19.05598279 -28.7734375 16.37841797 C-25.2577548 13.29698873 -21.22086342 11.16135099 -17.06298828 9.0703125 C-13.80568991 7.38037214 -10.76991751 5.36033066 -7.6875 3.375 C-2.26482213 0 -2.26482213 0 0 0 Z " fill="#FFFFFF" transform="translate(991,102)"/>
<path d="M0 0 C0 11.88 0 23.76 0 36 C9.9 36 19.8 36 30 36 C30 44.25 30 52.5 30 61 C20.1 61 10.2 61 0 61 C0.07397917 68.59944633 0.15679672 76.19771152 0.26245117 83.79663086 C0.29570111 86.38152954 0.32373277 88.96650084 0.34643555 91.55151367 C0.37997927 95.26773009 0.43229728 98.98328101 0.48828125 102.69921875 C0.49467117 103.85459641 0.5010611 105.00997406 0.50764465 106.20036316 C0.52743881 107.28110611 0.54723297 108.36184906 0.56762695 109.4753418 C0.58428154 110.89764351 0.58428154 110.89764351 0.60127258 112.34867859 C1.07762057 115.51613474 2.13435397 117.41561903 4 120 C7.88780637 122.24270696 11.391095 122.21432131 15.8125 122.125 C17.55466797 122.09792969 17.55466797 122.09792969 19.33203125 122.0703125 C20.21246094 122.04710937 21.09289062 122.02390625 22 122 C24.72927213 129.53798969 26.42467319 137.14571103 28 145 C13.47503043 148.55195762 -2.34418293 150.98541958 -16.16796875 143.88671875 C-22.96641619 139.56275312 -26.6917959 132.4336601 -28.55041504 124.71383667 C-29.9923254 117.38486758 -30.26244799 110.34968214 -30.1953125 102.89453125 C-30.1924826 101.6893132 -30.18965271 100.48409515 -30.18673706 99.24235535 C-30.1756352 95.43229808 -30.15054934 91.62248497 -30.125 87.8125 C-30.11495728 85.21289404 -30.1058337 82.61328437 -30.09765625 80.01367188 C-30.07572864 73.67568867 -30.04126848 67.33788558 -30 61 C-36.6 61 -43.2 61 -50 61 C-50 55 -50 55 -48.27172852 52.86035156 C-47.48209717 52.2103418 -46.69246582 51.56033203 -45.87890625 50.890625 C-45.02651367 50.14482178 -44.17412109 49.39901855 -43.29589844 48.63061523 C-42.39387695 47.84501221 -41.49185547 47.05940918 -40.5625 46.25 C-33.19207504 39.89153356 -33.19207504 39.89153356 -30.04296875 31.10546875 C-30.06149016 29.54805969 -30.12955105 27.99035481 -30.25 26.4375 C-30.79874398 19.05598279 -30.79874398 19.05598279 -28.7734375 16.37841797 C-25.2577548 13.29698873 -21.22086342 11.16135099 -17.06298828 9.0703125 C-13.80568991 7.38037214 -10.76991751 5.36033066 -7.6875 3.375 C-2.26482213 0 -2.26482213 0 0 0 Z " fill="#FFFFFF" transform="translate(704,102)"/>
<path d="M0 0 C0 9.9 0 19.8 0 30 C-3.96 30 -7.92 30 -12 30 C-20.78022496 30.66697854 -28.40685263 33.01913598 -35.62147522 38.15406799 C-37.74396156 40.99621166 -37.2523227 43.35256493 -37.11499023 46.85131836 C-37.06952161 48.28823551 -37.02432256 49.7251612 -36.97935486 51.16209412 C-36.95022444 51.92360716 -36.92109402 52.6851202 -36.89108086 53.4697094 C-36.75008537 57.52098792 -36.70436425 61.57383142 -36.64257812 65.62695312 C-36.55925737 70.77798021 -36.44845282 75.92335707 -36.22875977 81.07055664 C-35.0863176 108.8903497 -35.0863176 108.8903497 -39.91046143 115.69464111 C-44.53055004 119.83636647 -49.66328837 122.10685157 -55.49783325 124.05960083 C-58.78929288 125.29664305 -61.5294524 127.06836913 -64.4203949 129.04673767 C-66 130 -66 130 -68 130 C-68 87.76 -68 45.52 -68 2 C-58.43 2 -48.86 2 -39 2 C-38.505 9.92 -38.505 9.92 -38 18 C-37.0925 16.824375 -36.185 15.64875 -35.25 14.4375 C-26.20562806 4.08794431 -13.40431235 0 0 0 Z " fill="#FFFFFF" transform="translate(936,136)"/>
<path d="M0 0 C2.64 0 5.28 0 8 0 C8.33 1.32 8.66 2.64 9 4 C10.299375 3.01 10.299375 3.01 11.625 2 C17.30690125 -1.22861598 23.69112225 -0.83681769 30 0 C35.75729508 2.07828624 39.08327474 5.63322551 42 11 C44.31364027 17.94092082 44.51852439 28.98033544 41.375 35.75 C38.60481618 40.13694591 34.95610275 43.34796575 30 45 C27.77507423 45.17245295 25.54362852 45.26667141 23.3125 45.3125 C22.13300781 45.34988281 20.95351563 45.38726563 19.73828125 45.42578125 C16 45 16 45 8 41 C8 47.27 8 53.54 8 60 C5.36 60 2.72 60 0 60 C0 40.2 0 20.4 0 0 Z M9.3671875 12.1484375 C7.63147488 15.76863811 7.48538766 19.00312833 7.5 22.9375 C7.47164062 23.62779297 7.44328125 24.31808594 7.4140625 25.02929688 C7.39951648 28.86580844 7.93215267 31.41100913 10.28125 34.37890625 C13.96425418 37.92961861 16.32994839 39.28594427 21.4375 39.3125 C25.41709009 39.21448054 27.85425523 38.59061334 31 36 C35.33428403 31.04653254 35.28750622 26.3555153 35.2109375 20.015625 C34.82781809 14.53843638 33.49419803 11.3874696 29.375 7.5625 C21.69752657 4.00811415 14.6675197 5.17431618 9.3671875 12.1484375 Z " fill="#FFFFFF" transform="translate(877,512)"/>
<path d="M0 0 C1.27746094 -0.01675781 2.55492187 -0.03351563 3.87109375 -0.05078125 C8.66069659 0.42057649 12.11464422 1.71486604 15.375 5.3125 C17.62974992 9.10997354 17.74171225 12.39905833 17.87890625 16.73046875 C17.92080078 17.98408203 17.96269531 19.23769531 18.00585938 20.52929688 C18.04517578 21.83962891 18.08449219 23.14996094 18.125 24.5 C18.16820992 25.83529978 18.211825 27.17058652 18.25585938 28.50585938 C18.36206502 31.77463297 18.46410997 35.04348333 18.5625 38.3125 C19.8825 38.6425 21.2025 38.9725 22.5625 39.3125 C22.5625 41.2925 22.5625 43.2725 22.5625 45.3125 C21.1254191 45.36672947 19.68774538 45.40539723 18.25 45.4375 C17.44949219 45.46070313 16.64898438 45.48390625 15.82421875 45.5078125 C13.5625 45.3125 13.5625 45.3125 10.5625 43.3125 C10.5625 42.6525 10.5625 41.9925 10.5625 41.3125 C10.00304688 41.60125 9.44359375 41.89 8.8671875 42.1875 C1.32251105 45.68085501 -7.51688992 47.41474561 -15.59375 44.546875 C-18.60698639 42.68575841 -20.13480607 40.52581168 -21.4375 37.3125 C-21.99510357 32.85891301 -21.91565116 28.68718458 -20.4375 24.4375 C-15.19991137 18.87256209 -7.68443576 17.4206047 -0.4375 16.0625 C0.43261719 15.88976562 1.30273438 15.71703125 2.19921875 15.5390625 C4.3183002 15.11990353 6.44013855 14.71472173 8.5625 14.3125 C8.29215366 11.87532742 8.29215366 11.87532742 7.5625 9.3125 C3.31054276 6.47786184 -0.4444326 6.66697883 -5.4375 7.3125 C-8.99080284 9.18605968 -11.75494136 11.33187929 -14.4375 14.3125 C-16.0875 13.3225 -17.7375 12.3325 -19.4375 11.3125 C-18.08102598 6.87313049 -16.26941061 4.8968118 -12.4375 2.3125 C-8.24225611 0.22975481 -4.65796127 0.01407239 0 0 Z M-0.25 22 C-0.96220703 22.14888672 -1.67441406 22.29777344 -2.40820312 22.45117188 C-7.36674768 23.6208563 -10.16621027 25.1949693 -13.4375 29.3125 C-14.0962245 32.89888897 -13.88578677 34.53818648 -12.0625 37.6875 C-7.97569747 40.21742538 -4.11417585 39.91093719 0.5625 39.3125 C4.4553488 38.03847676 6.02740275 37.04379958 8.4375 33.75 C9.92794516 29.195862 9.81582328 25.05996583 9.5625 20.3125 C6.20831863 20.3125 3.00136501 21.24433992 -0.25 22 Z " fill="#FFFFFF" transform="translate(1133.4375,511.6875)"/>
<path d="M0 0 C1.27746094 -0.01675781 2.55492187 -0.03351563 3.87109375 -0.05078125 C8.66069659 0.42057649 12.11464422 1.71486604 15.375 5.3125 C17.62974992 9.10997354 17.74171225 12.39905833 17.87890625 16.73046875 C17.92080078 17.98408203 17.96269531 19.23769531 18.00585938 20.52929688 C18.04517578 21.83962891 18.08449219 23.14996094 18.125 24.5 C18.16820992 25.83529978 18.211825 27.17058652 18.25585938 28.50585938 C18.36206502 31.77463297 18.46410997 35.04348333 18.5625 38.3125 C19.8825 38.6425 21.2025 38.9725 22.5625 39.3125 C22.5625 41.2925 22.5625 43.2725 22.5625 45.3125 C21.1254191 45.36672947 19.68774538 45.40539723 18.25 45.4375 C17.44949219 45.46070313 16.64898438 45.48390625 15.82421875 45.5078125 C13.5625 45.3125 13.5625 45.3125 10.5625 43.3125 C10.5625 42.6525 10.5625 41.9925 10.5625 41.3125 C10.00304687 41.60125 9.44359375 41.89 8.8671875 42.1875 C1.32251105 45.68085501 -7.51688992 47.41474561 -15.59375 44.546875 C-18.60698639 42.68575841 -20.13480607 40.52581168 -21.4375 37.3125 C-21.99510357 32.85891301 -21.91565116 28.68718458 -20.4375 24.4375 C-15.19991137 18.87256209 -7.68443576 17.4206047 -0.4375 16.0625 C0.43261719 15.88976562 1.30273438 15.71703125 2.19921875 15.5390625 C4.3183002 15.11990353 6.44013855 14.71472173 8.5625 14.3125 C8.29215366 11.87532742 8.29215366 11.87532742 7.5625 9.3125 C3.31054276 6.47786184 -0.4444326 6.66697883 -5.4375 7.3125 C-8.99080284 9.18605968 -11.75494136 11.33187929 -14.4375 14.3125 C-16.0875 13.3225 -17.7375 12.3325 -19.4375 11.3125 C-18.08102598 6.87313049 -16.26941061 4.8968118 -12.4375 2.3125 C-8.24225611 0.22975481 -4.65796127 0.01407239 0 0 Z M-0.25 22 C-0.96220703 22.14888672 -1.67441406 22.29777344 -2.40820312 22.45117188 C-7.36674768 23.6208563 -10.16621027 25.1949693 -13.4375 29.3125 C-14.0962245 32.89888897 -13.88578677 34.53818648 -12.0625 37.6875 C-7.97569747 40.21742538 -4.11417585 39.91093719 0.5625 39.3125 C4.4553488 38.03847676 6.02740275 37.04379958 8.4375 33.75 C9.92794516 29.195862 9.81582328 25.05996583 9.5625 20.3125 C6.20831863 20.3125 3.00136501 21.24433992 -0.25 22 Z " fill="#FFFFFF" transform="translate(957.4375,511.6875)"/>
<path d="M0 0 C5.79089067 3.59737148 8.74256746 8.80524339 10.3125 15.3125 C11.26500298 23.29293033 9.75019137 30.24968106 5.625 37.125 C0.08676891 42.36386725 -4.59667958 43.58362347 -12.25 43.75 C-19.58635211 43.53143936 -23.70694505 42.75113586 -29.4375 38.0625 C-35.63351262 30.48959568 -35.60867917 22.86585247 -34.6875 13.3125 C-33.07524313 7.30980351 -29.70577675 3.79456958 -24.6875 0.3125 C-17.71038739 -3.15166081 -7.11841306 -3.31744911 0 0 Z M-24.5 10.375 C-27.51790115 15.29894398 -27.13537096 20.73010835 -26.6875 26.3125 C-25.14227005 30.56188236 -23.1418237 33.39791438 -19.6875 36.3125 C-15.61655226 37.66948258 -11.94396256 37.83637231 -7.6875 37.3125 C-3.27325116 35.10537558 -0.57918972 32.89238038 1.3125 28.3125 C2.84258189 21.55167302 2.63356596 15.50003734 -0.6875 9.3125 C-5.13960445 4.96898347 -8.31782115 3.95926406 -14.3671875 4.02734375 C-18.84520911 4.577673 -21.61462687 7.09164437 -24.5 10.375 Z " fill="#FFFFFF" transform="translate(1271.6875,513.6875)"/>
<path d="M0 0 C5.79089067 3.59737148 8.74256746 8.80524339 10.3125 15.3125 C11.26500298 23.29293033 9.75019137 30.24968106 5.625 37.125 C0.08676891 42.36386725 -4.59667958 43.58362347 -12.25 43.75 C-19.58635211 43.53143936 -23.70694505 42.75113586 -29.4375 38.0625 C-35.63351262 30.48959568 -35.60867917 22.86585247 -34.6875 13.3125 C-33.07524313 7.30980351 -29.70577675 3.79456958 -24.6875 0.3125 C-17.71038739 -3.15166081 -7.11841306 -3.31744911 0 0 Z M-24.5 10.375 C-27.51790115 15.29894398 -27.13537096 20.73010835 -26.6875 26.3125 C-25.14227005 30.56188236 -23.1418237 33.39791438 -19.6875 36.3125 C-15.61655226 37.66948258 -11.94396256 37.83637231 -7.6875 37.3125 C-3.27325116 35.10537558 -0.57918972 32.89238038 1.3125 28.3125 C2.84258189 21.55167302 2.63356596 15.50003734 -0.6875 9.3125 C-5.13960445 4.96898347 -8.31782115 3.95926406 -14.3671875 4.02734375 C-18.84520911 4.577673 -21.61462687 7.09164437 -24.5 10.375 Z " fill="#FFFFFF" transform="translate(1057.6875,513.6875)"/>
<path d="M0 0 C0 4.95 0 9.9 0 15 C2.97 15 5.94 15 9 15 C9 17.31 9 19.62 9 22 C6.03 22 3.06 22 0 22 C0.495 36.355 0.495 36.355 1 51 C3.31 51.99 5.62 52.98 8 54 C8 55.98 8 57.96 8 60 C6.2507786 60.08142927 4.50045458 60.13938541 2.75 60.1875 C1.77546875 60.22230469 0.8009375 60.25710938 -0.203125 60.29296875 C-3.42776918 59.95519178 -4.70790797 59.25529239 -7 57 C-8.1687481 53.4937557 -8.12514267 50.3522134 -8.09765625 46.70703125 C-8.0962413 46.00100266 -8.09482635 45.29497406 -8.09336853 44.56755066 C-8.08777764 42.31582374 -8.07522688 40.06419679 -8.0625 37.8125 C-8.05748382 36.28450665 -8.05292112 34.75651173 -8.04882812 33.22851562 C-8.0378112 29.48563865 -8.02055287 25.74283627 -8 22 C-10.64 22 -13.28 22 -16 22 C-16 19.69 -16 17.38 -16 15 C-13.36 15 -10.72 15 -8 15 C-8 11.04 -8 7.08 -8 3 C-2.25 0 -2.25 0 0 0 Z " fill="#FFFFFF" transform="translate(1212,497)"/>
<path d="M0 0 C2.64 0 5.28 0 8 0 C8 21.45 8 42.9 8 65 C5.36 65 2.72 65 0 65 C0 43.55 0 22.1 0 0 Z " fill="#FFFFFF" transform="translate(1173,492)"/>
<path d="M0 0 C2.64 0 5.28 0 8 0 C8 21.45 8 42.9 8 65 C5.36 65 2.72 65 0 65 C0 43.55 0 22.1 0 0 Z " fill="#FFFFFF" transform="translate(996,492)"/>
</svg>
